<?xml version="1.0" encoding="utf-8"?><svg xmlns="http://www.w3.org/2000/svg" xmlns:xlink="http://www.w3.org/1999/xlink"><symbol viewBox="0 0 190 190" id="acca" xmlns="http://www.w3.org/2000/svg"><path d="M0 95V0h190v190H0V95zm84.714 17.743c3.97-2.683 8.74-9.2 7.822-10.684-1.372-2.22-8.886-1.124-13.436 1.96-4.977 3.372-6.944 3.63-11.133 1.464-7.44-3.847-7.873-15.934-.75-20.922 3.335-2.336 6.982-1.9 11.883 1.42 4.577 3.102 12.067 4.176 13.455 1.93 1.106-1.79-5.036-9.24-9.61-11.659-5.718-3.023-14.614-3.075-20.72-.12-13.915 6.737-14.87 26.409-1.768 36.403 6.206 4.734 17.42 4.83 24.257.208zM23 113c1.958-2.75 2.626-3 8-3 5.374 0 6.042.25 8 3 1.816 2.55 2.792 3 6.51 3 2.404 0 4.637-.429 4.96-.953.325-.524-2.866-9.749-7.09-20.5L35.698 75h-9.372L18.61 94.51c-4.243 10.731-7.44 19.956-7.104 20.5.337.545 2.58.99 4.985.99 3.717 0 4.693-.45 6.509-3zm4.715-12.75c-.22-.412.368-3.225 1.31-6.25l1.711-5.5 1.564 3.555c.86 1.956 1.869 4.768 2.24 6.25.64 2.547.482 2.695-2.873 2.695-1.952 0-3.73-.338-3.952-.75zm101.641 12.739c4.268-2.89 9.133-9.39 8.18-10.93-1.372-2.22-8.886-1.124-13.436 1.96-4.977 3.372-6.944 3.63-11.133 1.464-9.275-4.796-7.085-20.473 3.087-22.095 2.75-.438 4.355.07 7.946 2.513 4.672 3.18 12.147 4.288 13.555 2.01 1.111-1.798-5.044-9.242-9.703-11.735-6.05-3.236-16.79-2.832-22.208.835-7.277 4.926-10.878 13.595-9.251 22.27 1.003 5.347 6.14 12.272 10.894 14.686 5.995 3.043 16.838 2.563 22.069-.978zm20.849.261c1.215-2.542 1.82-2.772 8.006-3.045 6.586-.29 6.717-.245 8.292 2.8 1.516 2.933 1.874 3.08 6.799 2.795 3.997-.23 5.125-.647 4.88-1.8-.174-.825-3.734-10.162-7.912-20.75L162.674 74h-8.504l-8.085 20.347c-4.447 11.191-8.085 20.641-8.085 21 0 .36 2.45.653 5.445.653 4.956 0 5.564-.248 6.76-2.75zM155 99.904c0-.603.742-3.64 1.649-6.75l1.649-5.654 1.869 5.482c1.028 3.015 1.65 6.053 1.382 6.75-.594 1.55-6.549 1.706-6.549.172z"/></symbol><symbol viewBox="0 0 281.49826 284.5463" id="book" xmlns="http://www.w3.org/2000/svg"><path d="M0 146.546v-138h79v276H0v-138zm45.328 105.957c4.857-3.82 4.12-13.04-1.273-15.927-8.435-4.515-17.65 4.886-13.107 13.373 2.53 4.726 9.944 6.043 14.38 2.554zm20.374-89.153L69 160.154V54.7l-2.486-2.955-2.486-2.954-17.327-.722c-21.893-.912-29.796-.155-33.834 3.243l-2.991 2.517.312 53.824c.346 59.656-.065 56.237 6.951 57.895 1.849.436 12.79.84 24.313.896l20.953.102 3.297-3.196zM20 127.046v-4.5h39v9H20v-4.5zm0-20v-4.5h39v9H20v-4.5zm0-19.5v-5h39v10H20v-5zm63 59v-138h79v276H83v-138zm45.505 105.586c3.153-3.153 4.022-6.899 2.47-10.645-3.42-8.258-14.757-7.905-17.975.56-.893 2.349-.304 5.722 1.5 8.588 2.792 4.435 10.268 5.234 14.005 1.497zm20.197-88.782l3.298-3.196V54.7l-2.486-2.955-2.486-2.954-17.327-.722c-21.88-.912-29.797-.154-33.827 3.237l-2.984 2.51.305 53.83c.338 59.665-.072 56.244 6.944 57.902 1.849.436 12.79.84 24.313.896l20.953.102 3.297-3.196zM103 127.046v-4.5h39v9h-39v-4.5zm0-20v-4.5h39v9h-39v-4.5zm0-19.5v-5h39v10h-39v-5zm100.51 194.696c-.982-3.039-37.556-270.983-37.057-271.482.685-.685 76.834-11.26 77.352-10.742.587.587 38.133 271.923 37.69 272.367-.222.222-16.287 2.577-35.7 5.233-19.412 2.656-36.781 5.053-38.597 5.325-2.069.31-3.447.048-3.689-.701zm37.93-34.673c3.29-1.25 6.06-6.896 5.154-10.503-1.107-4.413-4.96-7.52-9.326-7.52-4.619 0-7.568 1.896-9.243 5.941-3.412 8.236 4.586 15.439 13.415 12.082zm-12.94-86.583l20-2.564 3.236-3.688c2.919-3.326 3.178-4.128 2.644-8.188-.326-2.475-3.582-26.05-7.236-52.39L240.5 46.263 237 43.5l-3.5-2.765-18.5 2.372c-23.535 3.017-27.097 3.887-30.512 7.452l-2.75 2.87 7.136 50.31c3.925 27.669 7.612 52.02 8.193 54.113 1.816 6.534 3.558 6.708 31.433 3.134zm-26-32.835c-.18-.608-.57-2.523-.869-4.257-.456-2.654-.193-3.235 1.663-3.67 4.348-1.02 35.76-4.956 36.183-4.534.237.237.72 2.233 1.072 4.435l.64 4.003-9.845 1.254c-5.414.69-14.046 1.844-19.181 2.564-6.732.945-9.428 1.002-9.664.205zm-2.873-20.135c-.345-.898-.627-2.896-.627-4.44 0-3.255-1.294-2.897 21.905-6.05 16.912-2.3 17.05-2.27 17.08 3.611l.015 3.091-16.25 2.214c-8.938 1.218-17.43 2.438-18.873 2.711-1.829.346-2.813.002-3.25-1.137zM196.44 86c-.375-2.5-.515-4.7-.311-4.886.495-.455 38.099-5.686 38.382-5.34.598.733 1.158 9.772.605 9.772-.35 0-8.508 1.12-18.127 2.487-9.62 1.367-18.025 2.492-18.679 2.5-.654.007-1.495-2.032-1.87-4.533z"/></symbol><symbol viewBox="0 0 76.402344 75.208984" id="cert" xmlns="http://www.w3.org/2000/svg"><path d="M38.201 0A38.202 37.605 0 0 0 0 37.604a38.202 37.605 0 0 0 38.201 37.605 38.202 37.605 0 0 0 38.201-37.605A38.202 37.605 0 0 0 38.202 0zM61.06 19.422c.501 0-.199.875-1.557 1.943-1.358 1.069-5.79 6.806-9.848 12.75-4.057 5.944-11.088 14.52-15.623 19.057-8.727 8.733-11.952 10.357-10.88 5.48.827-3.766-.972-5.873-6.95-8.136-2.75-1.042-4.905-2.215-4.789-2.608.116-.393 4.166-2.038 9-3.654C30.708 40.812 40.2 35.43 48.937 28.08c7.242-6.092 10.833-8.658 12.122-8.658z"/></symbol><symbol viewBox="0 0 31 43" id="check" xmlns="http://www.w3.org/2000/svg"><path d="M13 15.72C18.2 10.37 23.3 4.9 28.93.01c.52.52 1.55 1.57 2.07 2.09v.25c-5.95 6.19-11.82 12.5-18.24 18.19-1.63-1.47-3.32-2.91-4.63-4.68-1.19-1.3 1.06-2.31 1.78-3.14 1.03.99 2.06 1.99 3.09 3z"/><path d="M8.84 5.53c3.42-1.39 6.99.1 10.11 1.52-.81.78-1.63 1.56-2.46 2.33-4.33-2.43-10.4-.67-12.29 4.04C1.46 18.47 5.51 25 10.96 25.74c3.06.41 6.25-1.18 7.98-3.69 2.15-2.71.98-6.94 4.26-8.9 1.66 4.46.05 9.6-3.29 12.83 3.04 4.78 5.72 9.78 8.38 14.77-1.16.79-2.34 1.54-3.55 2.25h-.3c-3.39-4.52-5.73-9.73-8.69-14.53-6 1.88-13.06-1.56-14.93-7.62C-1.6 14.69 2.5 7.16 8.84 5.53z"/></symbol><symbol viewBox="0 0 68 67" id="clock" xmlns="http://www.w3.org/2000/svg"><path d="M6.9 13.99C12.48 6.26 21.59 1.25 31.11.65c0 2.5 0 5.01-.01 7.52C17.49 9.56 6.25 23.08 8.26 36.79c1.65 14.31 16.77 24.94 30.82 21.9 11.13-2.04 19.98-12.12 20.75-23.39 2.52-.01 5.05-.01 7.57.01-.72 14.88-12.62 28.2-27.25 30.76-13.05 2.72-27.31-3.44-34.42-14.68-7.38-11.12-6.82-26.75 1.17-37.4z"/><path d="M35.51.66c7.3.36 14.35 3.22 19.97 7.88-1.85 1.82-3.72 3.62-5.59 5.43-4.01-3.46-9.09-5.49-14.36-5.82.02-2.5.01-4.99-.02-7.49zm18.12 16.26c1.77-1.82 3.58-3.61 5.4-5.37 4.81 5.37 7.82 12.27 8.31 19.47-2.52.01-5.04.01-7.57 0-.6-5.18-2.8-10.1-6.14-14.1zM31.51 29.6c5.57-3.57 11.27-6.93 16.91-10.39-3.32 5.53-6.27 11.26-9.52 16.83-1.34 2.69-5.15 3.52-7.51 1.68-2.72-1.81-2.7-6.42.12-8.12z"/></symbol><symbol viewBox="0 0 105.6998 109.94563" id="cons" xmlns="http://www.w3.org/2000/svg"><path d="M48.338 107.855c-4.884-3.284-18.463-9.455-26.232-11.922l-7.232-2.297-2.174-6.559C11.504 83.47 8.157 74.781 5.263 67.77L0 55.021l5.037-11.252c2.771-6.188 6.2-14.938 7.618-19.445l2.58-8.194 8.976-3.134c4.936-1.724 13.396-5.353 18.8-8.065L52.839 0l9.75 4.89c5.362 2.69 13.35 6.137 17.75 7.662 4.4 1.524 8.509 3.265 9.13 3.869.623.603 2.37 4.922 3.883 9.597s4.91 13.113 7.55 18.752l4.798 10.25-4.402 9.419c-2.42 5.18-5.866 13.922-7.656 19.425L90.387 93.87l-8.128 2.644c-4.47 1.454-13.195 5.088-19.387 8.074-6.192 2.986-11.32 5.396-11.396 5.356a233 233 0 0 1-3.138-2.09zm14.66-6.347c5.137-2.48 12.897-5.755 17.245-7.277l7.905-2.767 2.657-7.973c1.46-4.385 4.74-12.604 7.285-18.264l4.63-10.291L97.83 44.1c-4.953-10.979-8.992-21.919-8.992-24.354 0-.77-2.927-2.278-6.912-3.561-3.801-1.224-11.905-4.677-18.01-7.673L52.82 3.066l-6.323 3.476c-3.477 1.91-11.398 5.394-17.603 7.74l-11.28 4.265-3.783 10.486C11.75 34.8 8.464 42.947 6.528 47.138l-3.52 7.619 6.466 16.38c3.557 9.01 6.837 17.281 7.29 18.381.567 1.376 3.477 2.892 9.322 4.856 4.674 1.571 12.267 4.802 16.875 7.18 4.607 2.377 8.899 4.354 9.538 4.393.638.04 5.363-1.958 10.5-4.439zm-19.16-3.977c-4.676-2.342-11.759-5.303-15.742-6.58-7.04-2.257-7.287-2.447-8.902-6.877-.914-2.506-3.898-10.084-6.632-16.84l-4.97-12.285 3.522-7.716C13.05 42.99 16.06 35.435 17.8 30.445l3.164-9.074 6.762-2.178c3.72-1.198 10.91-4.197 15.98-6.664l9.218-4.487 8.706 4.357c4.789 2.397 11.632 5.39 15.207 6.65 3.575 1.261 6.878 2.62 7.34 3.022.463.4 2.14 4.593 3.727 9.317 1.587 4.723 4.507 11.806 6.488 15.74l3.602 7.154-3.59 7.855c-1.975 4.32-4.895 11.735-6.488 16.477-1.594 4.743-3.276 8.952-3.739 9.356-.462.403-4.44 1.982-8.84 3.509-4.4 1.527-11.376 4.471-15.5 6.543l-7.501 3.768-8.5-4.259zm10.617-7.263c.389-2.062.897-3.187 1.128-2.5.726 2.155 2.255 1.363 2.255-1.168 0-1.33.273-3.13.607-4 .87-2.266 3.393-1.955 3.393.418 0 1.467.666 2 2.5 2 3.148 0 3.37-2.736.259-3.18-2.897-.413-4.475-3.84-5.464-11.86-.714-5.798-1.043-6.495-3.207-6.8-1.843-.26-2.08-.548-1-1.219.776-.482 1.412-2.129 1.412-3.659 0-2.123.532-2.857 2.25-3.101 4.792-.68 1.264-5.18-4.062-5.18-3.296 0-4.835 2.12-5.441 7.5-.374 3.314-.16 4.5.811 4.5.807 0 .47.79-.87 2.038-1.204 1.122-2.188 3.13-2.188 4.465 0 3.139-2.929 11.803-4.277 12.654-.573.361-1.645.426-2.383.143-1.32-.507-1.968 2.738-.782 3.924 1.144 1.144 4.552-.495 4.003-1.925-.396-1.034.08-1.348 1.694-1.119 1.732.246 2.318 1.08 2.564 3.65.223 2.323.732 3.172 1.683 2.807.893-.343 1.587.493 2.01 2.42.888 4.043 2.256 3.688 3.105-.808zm-4.445-8.345c-1.095-1.754-.872-1.905 2.82-1.905 2.387 0 4.008.472 4.008 1.167 0 .642-.302.865-.67.496-.37-.368-1.638-.036-2.82.738-1.912 1.253-2.28 1.199-3.338-.496zM33.23 71.757c.57-.904.726-1.954.346-2.333-.95-.952-3.738 1.509-3.738 3.3 0 1.81 2 1.24 3.393-.967zm42.135 1.217c.693-1.122-1.204-3.956-2.65-3.956-1.024 0-1.188 3.356-.21 4.334.969.97 2.121.817 2.86-.378zm-45.588-3.168c1.285-2.28 1.252-2.74-.311-4.303-1.435-1.434-2.196-1.547-4.218-.626-2.544 1.16-4.144 3.74-3.017 4.868.352.352 1.172.107 1.823-.543 1.699-1.699 3.261-1.464 1.82.272-1.358 1.637-.472 3.854 1.305 3.267.637-.21 1.806-1.532 2.598-2.935zm50.247.77c-.243-1.342.152-1.585 1.75-1.078 1.707.542 2.064.226 2.064-1.829 0-1.366.562-2.718 1.25-3.005.886-.369.685-.974-.691-2.083-1.904-1.532-1.899-1.563.25-1.563 2.573 0 2.923-1.781.53-2.7-1.421-.545-1.349-.752.5-1.436 2.545-.942 2.885-2.864.506-2.864-1.54 0-1.54-.127 0-1.829 2.358-2.606 2.05-3.487-.954-2.733l-2.61.655 2.21-2.796 2.208-2.797-2.098-.32c-1.682-.255-1.907-.675-1.135-2.118 1.123-2.096.433-3.152-1.56-2.387-1.099.421-1.26-.183-.75-2.82.635-3.281.605-3.316-1.332-1.605-2.756 2.434-2.928 2.278-2.496-2.25.412-4.32-.339-5.013-2.436-2.25-1.206 1.588-1.332 1.49-1.36-1.066-.018-1.548-.553-3.788-1.19-4.977-1.13-2.113-1.174-2.117-1.93-.184-.424 1.087-.803 4.677-.84 7.977-.058 4.996.343 6.48 2.397 8.87 1.522 1.769 3.055 2.643 4 2.28 1.708-.655 1.792-.495.924 1.768-.77 2.005-3.275 2.055-4.032.082-.316-.825-1.17-1.5-1.899-1.5-.728 0-1.467-.918-1.643-2.04-.176-1.121-.77-2-1.32-1.954-1.57.134-.688 9.309.985 10.246.801.448 1.946 2.635 2.545 4.859.996 3.695.865 4.34-1.518 7.463-1.933 2.534-3.642 3.583-6.61 4.058-3.349.535-3.955.987-3.703 2.754.629 4.405 7.719 2.056 14.107-4.675 2.391-2.519 2.747-3.608 2.41-7.373-.217-2.43.051-4.694.596-5.03.567-.35.176-1.23-.91-2.05-1.855-1.402-1.852-1.429.099-1.087 1.623.284 2.11 1.383 2.588 5.84.323 3.019.138 6.614-.412 7.99-.55 1.374-.927 2.837-.838 3.25.089.412-.513.75-1.338.75-1.92 0-1.896.99.093 3.829 1.79 2.555 4.073 2.382 3.593-.271zm-34.686-1.1c0-1.34-.997-2.08-3.486-2.589-2.028-.414-4.676-2.045-6.332-3.898-3.138-3.512-3.092-4.986.39-12.631 2.058-4.515 2.58-10.34.928-10.34-.55 0-1 .675-1 1.5s-.675 1.5-1.5 1.5-1.5.627-1.5 1.393c0 1.503-2.903 3.038-3.885 2.056-.33-.33.195-1.043 1.164-1.585.97-.543 1.483-1.44 1.141-1.993-.342-.553.282-1.242 1.387-1.53 1.104-.29 2.268-1.497 2.587-2.683 1.012-3.775.656-14.509-.506-15.227-1.691-1.045-2.852 1.571-2.913 6.57l-.055 4.5-1.492-2.75c-2.135-3.936-2.763-3.411-2.174 1.815l.515 4.566-2.385-2.24-2.384-2.24v2.674c0 1.71-.54 2.674-1.5 2.674-1.775 0-1.848.483-.465 3.066.874 1.634.7 1.934-1.115 1.934-2.064 0-2.084.1-.512 2.5 1.54 2.352 1.53 2.5-.187 2.5-2.87 0-2.762 6.84.126 8.005 1.624.655 1.737.884.462.932-2.687.1-3.153 2-.713 2.903 1.888.698 1.973.92.564 1.46-2.477.95-2.005 2.7.729 2.7 2.258 0 8.248-3.896 6.099-3.966-1.438-.048-.282-11.28 1.21-11.771.88-.29.967.417.325 2.657-1.69 5.889-.333 10.215 4.63 14.771 5.728 5.259 11.847 6.688 11.847 2.767zm-1.082-4.065c2.323-.891 1.93-2.31-.944-3.403-3.358-1.276-4.117-3.622-1.949-6.018 1.405-1.552 1.581-2.61.857-5.135-.98-3.413-3.382-5.082-3.382-2.349 0 .91-.675 2.33-1.5 3.155-.917.917-1.5 3.367-1.5 6.304 0 4.424.256 4.93 3.25 6.406 3.863 1.904 3.242 1.78 5.168 1.04zm21.602-.903c5.148-2.663 6.44-7.545 2.98-11.26-1.1-1.18-2-3.038-2-4.129 0-3.705-1.898-3.175-3.109.868-1.037 3.461-.974 4.282.451 5.857 2.482 2.742 2.01 4.856-1.342 6.024-2.93 1.022-3.678 2.139-2.334 3.484 1 1 2.134.82 5.354-.844z"/></symbol><symbol viewBox="0 0 89.086113 118" id="cup" xmlns="http://www.w3.org/2000/svg"><path d="M19.392 115.5V113h50v5h-50v-2.5zm0-15V90h50v21h-50v-10.5zm17-13.34c0-.462.9-4.359 2-8.66s2-9.737 2-12.081c0-3.86-.624-4.942-6.614-11.469-3.638-3.964-7.67-9.512-8.958-12.329-2.548-5.565-4.924-18.778-6.002-33.371L18.134 0h51.563l-.648 11.347c-1.377 24.103-4.528 34.08-13.996 44.306-4.76 5.14-5.66 6.704-5.66 9.814 0 3.253 2.932 16.587 4.607 20.954.525 1.367-.615 1.579-8.5 1.579-5.01 0-9.108-.378-9.108-.84zm32.126-34.708c-2.499-2.102-3.126-3.398-3.126-6.458 0-3.215.626-4.362 3.905-7.161 3.577-3.054 4.205-4.397 7.5-16.037 1.977-6.988 3.595-13.373 3.595-14.19 0-1.11-1.073-1.437-4.25-1.295-4.11.183-4.26.082-4.563-3.061L71.265 1h9.131c8.263 0 9.078.167 8.572 1.76-.307.97-2.604 9.122-5.103 18.118C78.247 41.102 77.08 44 74.55 44c-2.518 0-3.464 2.5-1.548 4.091 1.67 1.385 1.504 6.054-.234 6.623-.618.203-2.53-.815-4.25-2.262zm-53.499.841c-.993-.993-.728-5.112.373-5.793 1.914-1.183 1.075-4.35-1.24-4.68-1.233-.176-2.775-1.445-3.428-2.82C8.872 36.102-.523 1.672.023.789.29.355 4.309 0 8.95 0h8.441v3c0 2.883-.173 3-4.44 3-2.443 0-4.63.338-4.859.75-.23.412 1.328 6.79 3.461 14.172 3.524 12.196 4.242 13.758 7.858 17.096 4.143 3.825 5.032 7.149 2.95 11.037-1.165 2.178-6.389 5.193-7.343 4.238z"/></symbol><symbol viewBox="0 0 446.18213 503.88132" id="deals--1" xmlns="http://www.w3.org/2000/svg"><path d="M223.084 502.803c-6.299-1.477-15.823-6.622-21.577-11.655-16.22-14.188-21.447-36.29-12.847-54.314 4.267-8.942 11.026-17.345 17.223-21.411 2.515-1.65 4.582-3.346 4.594-3.769.076-2.636-25.407-99.37-26.334-99.966-.629-.404-3.26-.742-5.845-.75-12.294-.04-28.63-6.884-40.414-16.93l-7.114-6.066-28.886 17.484L73 322.911l-.572 8.782c-.48 7.378-1.1 9.774-3.882 14.993-3.915 7.344-10.702 14.005-18.163 17.824-4.516 2.311-6.67 2.762-13.383 2.796-11.058.057-17.072-2.167-24.529-9.07-3.976-3.682-7.014-7.687-9.203-12.134C.4 340.278-.001 338.482 0 331.444c0-6.625.471-9.025 2.703-13.79 3.405-7.268 12.117-16.073 19.037-19.241 11.172-5.115 21.759-4.281 33.19 2.614l6.504 3.922 22.783-13.833c38.476-23.362 35.494-21.245 34.799-24.693-.333-1.65-.861-8.672-1.175-15.604-.459-10.159-.239-13.746 1.134-18.5 2.568-8.89 7.947-18.374 15.27-26.923l6.581-7.681-3.163-6.415c-4.26-8.638-4.177-12.28.371-16.274 6.235-5.474 13.396-3.12 17.97 5.908 1.417 2.795 3.272 5.35 4.122 5.675.85.327 3.996.045 6.991-.625 6.962-1.558 19.452-1.563 25.882-.01 2.75.664 8.79 2.955 13.42 5.092l8.42 3.886 2.445-2.265c9.455-8.756 110.684-117.411 110.564-118.675-.084-.874-1.397-4.514-2.919-8.09-5.626-13.215-4.216-29.88 3.535-41.778 12.161-18.67 33.712-28.028 52.104-22.626 13.872 4.075 26.576 14.845 33.07 28.034 3.225 6.553 3.361 7.294 3.361 18.35 0 9.59-.384 12.533-2.293 17.561-6.633 17.47-24.27 30.207-43.235 31.225-7.465.4-9.46.12-16-2.257-4.11-1.494-8.597-2.926-9.972-3.183-2.212-.413-8.376 5.787-53.542 53.854-28.074 29.876-53.24 56.701-55.924 59.61l-4.882 5.29 4.615 9.21c2.538 5.066 5.143 11.985 5.788 15.376 1.134 5.963.797 23.386-.608 31.422-.604 3.453-.435 3.712 4.482 6.867 6.739 4.324 9.071 7.43 9.071 12.077 0 3.054-.665 4.345-3.535 6.865-4.575 4.017-7.68 3.962-15.678-.28l-6.379-3.385-5.993 5.145c-3.296 2.83-8.338 6.65-11.204 8.488-3.731 2.395-5.187 3.953-5.126 5.49.047 1.18 5.56 23.742 12.25 50.138l12.165 47.993 8.112 1.673c18.632 3.843 32.775 15.717 39.138 32.86 6.256 16.853 2.413 33.351-11.107 47.683-12.47 13.218-28.65 18.793-44.058 15.18zm20.305-22.342c6.218-2.193 10.722-6.118 13.561-11.816 3.413-6.848 3.654-19.809.49-26.343-6.245-12.902-22.789-17.802-38.002-11.258-8.271 3.558-12.58 10.339-13.623 21.437-.857 9.118 1.607 16.462 7.493 22.337 2.58 2.575 6.266 5.18 8.191 5.791 5.12 1.623 17.101 1.542 21.89-.148zM43.465 345.171c10.93-5.514 9.596-24.903-1.952-28.362-5.154-1.545-13.816.21-16.818 3.405-4.397 4.68-4.726 17.217-.575 21.874 4.281 4.803 13.138 6.214 19.345 3.083zm146.803-56.756c13.279-3.13 21.714-9.958 27.567-22.313 3.005-6.344 3.164-7.281 3.164-18.68 0-10.822-.254-12.54-2.586-17.5-3.308-7.035-11.372-15.846-17.574-19.204-11.287-6.11-27.576-6.31-39.675-.49-8.945 4.304-15.05 10.3-19.03 18.695-2.674 5.638-3.133 7.846-3.469 16.66-.294 7.728.027 11.439 1.34 15.5 6.913 21.382 27.657 32.662 50.263 27.332zm192.954-215.6c4.842-2.344 8.778-6.62 11.41-12.392 2.313-5.075 2.455-16.418.285-22.786-2.027-5.95-8.182-12.105-14.132-14.133-5.456-1.859-15.94-2.065-21.427-.42-5.068 1.517-11.39 7.006-14.051 12.196-2.58 5.031-3.584 16.76-1.879 21.927 2.613 7.917 10.8 15.877 18.307 17.797 5.081 1.3 16.731.113 21.487-2.19zm18 341.747c-6.58-1.851-15.2-8.032-19.919-14.282-5.492-7.276-7.804-13.894-7.804-22.348v-6.969l-3.972-2.026c-2.185-1.115-5.56-3.42-7.5-5.124-2.979-2.616-3.528-3.747-3.528-7.272 0-5.096 2.14-8.361 6.74-10.283 3.335-1.394 3.788-1.307 10.973 2.105 4.122 1.958 7.943 3.56 8.49 3.56.548 0 3.539-1.562 6.646-3.47 7.918-4.863 16.23-6.841 23.213-5.525 12.013 2.264 23.361 11.245 28.736 22.742 3.975 8.503 3.838 18.357-.38 27.255-7.749 16.352-26.288 25.972-41.695 21.637zm19.276-24.138c6.418-6.15 5.935-17.726-1.001-24.004-1.784-1.614-3.614-1.997-9.537-1.997-6.687 0-7.589.248-10.29 2.835-5.284 5.063-6.49 15.337-2.521 21.495 2.324 3.607 7.031 5.24 14.083 4.888 5.289-.264 6.692-.751 9.266-3.217zm-102.999-51.617c-15.551-8.475-36.601-21.338-39.25-23.983-4.191-4.187-3.877-9.704.785-13.798 4.125-3.622 6.325-3.802 12.465-1.022 9.212 4.172 38.514 21.544 42.19 25.014 5.186 4.893 5.319 9.596.41 14.505-4.483 4.483-7.281 4.362-16.6-.716zM122.918 157.954c-3.073-1.243-6.662-5.916-12.51-16.285-8.22-14.577-13.909-26.846-13.909-30 0-4.397 4.825-8.746 9.7-8.746 5.346 0 7.44 1.794 13.146 11.266 10.442 17.336 16.154 29.436 16.154 34.223 0 4.125-.344 4.747-4.15 7.504-4.403 3.19-5.142 3.368-8.431 2.038zM81.712 86.448c-1.618-1.36-4.213-4.904-5.768-7.874l-2.827-5.4-6.784-.63c-3.73-.347-9.285-1.567-12.343-2.71-7.689-2.878-16.55-11.254-20.594-19.47-2.98-6.054-3.116-6.84-2.703-15.658.529-11.263 2.49-15.628 10.726-23.863C50.196 2.066 53.986.466 66 .469c9.044.001 10.52.273 15.453 2.848 6.73 3.511 14.989 11.817 18.162 18.263 2.01 4.082 2.382 6.334 2.37 14.343-.014 8.466-.325 10.098-2.858 15-1.564 3.025-3.936 6.666-5.272 8.092l-2.428 2.593 3.536 7.379c1.945 4.059 3.536 8.202 3.536 9.207 0 3.14-2.908 7.63-5.967 9.212-4.193 2.168-7.447 1.88-10.82-.958zm-7.213-37.277c9.655-4.823 9.328-22.706-.49-26.809-7.123-2.976-16.754-1.048-20.074 4.018-4.341 6.626-3.339 16.665 2.145 21.48 3.023 2.653 4.253 3.062 9.204 3.061 3.437 0 7.11-.698 9.215-1.75z"/></symbol><symbol viewBox="0 0 196.51625 153.509" id="deals--10" xmlns="http://www.w3.org/2000/svg"><path d="M91.174 152.711c-4.417-1.285-9.477-7.037-11.533-13.11l-1.796-5.306-23.616-12.799-23.617-12.799-3.206 2.287c-2.56 1.827-4.533 2.288-9.785 2.288-5.713 0-7.076-.38-10.369-2.892-10.578-8.068-9.404-23.092 2.343-29.974 4.397-2.576 12.037-2.461 16.633.25 1.972 1.164 4.001 2.116 4.51 2.116.509 0 11.468-5.68 24.355-12.622C78.12 57.744 78.533 57.466 79.178 53.9c1.532-8.48 9.228-15.128 17.513-15.128 14.317 0 22.757 15.12 15.143 27.126-5.91 9.32-17.195 10.88-27.165 3.755-1.212-.866-6.467 1.579-25.287 11.762C39.95 91.931 35.677 94.622 35.912 96.2c.206 1.384 6.987 5.558 24.067 14.814l23.78 12.886 2.975-2.503c5.525-4.65 15.15-4.413 21.43.527 3.622 2.849 6.535 9.023 6.535 13.849 0 12.096-11.56 20.42-23.525 16.94zm.596-39.69c-9.258-4.721-12.75-16.003-7.648-24.708 5.657-9.653 17.608-11.567 27.61-4.42 1.214.867 6.456-1.559 25.293-11.707 20.035-10.793 23.716-13.12 23.468-14.835-.22-1.526-6.198-5.223-23.971-14.826l-23.677-12.792-3.674 2.493c-9.159 6.216-20.483 3.325-25.5-6.509C76.824 12.295 89.637-3.559 103.882.71c5.897 1.766 10.628 6.614 12.72 13.035l1.783 5.472 23.562 12.774 23.562 12.773 4.345-2.483c10.632-6.078 24.194.177 26.45 12.2 1.262 6.727-3.248 15.504-9.675 18.828-4.16 2.15-12.746 1.873-16.704-.54-1.801-1.098-3.73-1.996-4.288-1.996-.557 0-11.481 5.638-24.276 12.528L118.098 95.83l-1.22 4.566c-.673 2.512-2.36 6.06-3.752 7.884-4.594 6.023-14.52 8.227-21.356 4.741z"/></symbol><symbol viewBox="0 0 412.18411 408.75427" id="deals--2" xmlns="http://www.w3.org/2000/svg"><path d="M395.527 405.392c-23.734-5.469-50.258-14.138-63.273-20.68l-5.773-2.901-11.227 2.266c-15.915 3.212-47.476 3.225-61.91.026-26.679-5.913-48.533-17.215-65.195-33.716-31.609-31.302-39.775-73.406-21.57-111.209 15.422-32.025 49.604-55.673 92.448-63.96 13.686-2.647 38.744-2.454 53.023.408 55.582 11.142 94.257 48.052 99.602 95.057 2.409 21.187-3.44 44.283-15.822 62.468-3.8 5.58-5.303 8.739-5.303 11.14 0 10.589 7.276 34.772 16.074 53.425 2.71 5.743 4.926 10.6 4.926 10.794 0 .548-.584.434-16-3.118zm-153.21-108.423c4.582-2.34 6.687-4.61 8.672-9.361 2.079-4.976 1.935-8.293-.583-13.496-4.487-9.268-16.253-12.577-24.743-6.958-4.308 2.85-8.15 9.608-8.114 14.274.027 3.605 3.034 10.366 5.586 12.56 5.892 5.06 12.955 6.159 19.182 2.98zm50.895.83c9.124-3.448 13.908-14.915 9.694-23.236-3.519-6.95-8.161-9.931-15.461-9.931-12.625 0-21.328 13.802-15.639 24.804 3.878 7.498 13.62 11.304 21.406 8.363zm52.893-.833c7.376-3.35 11.318-11.161 9.566-18.957-1.897-8.444-8.259-13.377-17.249-13.377-14.36 0-22.093 17.102-12.615 27.897 5.597 6.374 12.642 7.914 20.298 4.437zM4.426 334.062c14.356-28.552 24.755-60.664 26.684-82.398l.683-7.698-4.987-6.802C2.673 204.248-5.79 162.733 3.714 123.884c15.177-62.037 74.007-109.878 149.41-121.5 76.496-11.79 157.813 21.041 195.182 78.805 13.548 20.94 22.196 48.722 22.215 71.36l.006 7.187-9.25-4.375c-5.088-2.407-13.3-5.73-18.25-7.385l-9-3.01-1.583-7.301C321.332 86.4 274.509 47.799 212.016 38.38c-12.862-1.939-39.793-1.935-53.46.007-61.559 8.749-109.85 48.286-120.26 98.462-2.515 12.127-2.026 32.405 1.064 44.107 4.088 15.48 13.352 31.478 26.194 45.23l7.056 7.554-1.596 9.31c-2.079 12.132-5.938 27.972-9.662 39.653-1.637 5.137-2.747 9.571-2.465 9.853 1.444 1.444 32.502-10.971 50.115-20.033 6.587-3.388 12.266-6.291 12.621-6.451.355-.16.87 7.265 1.142 16.5.273 9.235.807 17.52 1.187 18.412 2.531 5.945-59.179 27.959-106.17 37.873-7.835 1.653-14.927 3.005-15.761 3.005-1.15 0-.568-1.886 2.405-7.8z"/></symbol><symbol viewBox="0 0 512.09625 435.59598" id="deals--3" xmlns="http://www.w3.org/2000/svg"><path d="M474 434.367c-3.843-1.323-10.674-7.782-46.76-44.213l-42.26-42.663 19.76-19.851 19.76-19.851 29.867 30.332c35.258 35.805 51.877 53.772 54.323 58.728 1.219 2.471 1.783 5.96 1.794 11.103.013 6.455-.396 8.244-2.938 12.833-3.258 5.882-6.719 9.195-12.9 12.348-5.318 2.713-14.719 3.275-20.646 1.234zm-233-75.41c-23.117-1.678-52.076-10.92-74.194-23.677-35.829-20.666-65.885-57.62-79.7-97.99-11.548-33.744-11.817-79.26-.666-112.59C114.133 41.93 194.97-9.604 279.699 1.5c52.134 6.832 97.953 34.645 126.282 76.657 6.407 9.501 12.068 19.277 14.412 24.886l1.498 3.585-9.196 6.97a3933.497 3933.497 0 0 1-12.872 9.726l-3.677 2.755-5.644-11.036c-7.837-15.32-16.211-26.8-28.514-39.09-21.695-21.671-46.418-34.974-76.327-41.069-13.077-2.665-41.659-2.878-54.554-.407-25.027 4.795-49.072 16.306-69.38 33.215-24.533 20.427-43.546 53.554-49.222 85.761-2.189 12.422-2.172 43.318.029 54.109 9.202 45.11 39.078 84.559 78.966 104.27 13.4 6.621 22.241 9.642 37.35 12.762 16.861 3.482 40.137 3.684 56.098.485 56.715-11.364 101.161-52.787 115.483-107.626 1.437-5.5 3.07-11.687 3.63-13.75.867-3.189 2.767-5.064 12.729-12.56 6.44-4.845 13.847-10.267 16.46-12.048l4.75-3.238v3.577c0 7.395-3.14 33.321-4.968 41.02-4.556 19.187-14.187 41.878-24.404 57.5l-5.559 8.5 7.96 8.014 7.96 8.016L399.5 321.95l-19.487 19.468-7.922-7.876-7.923-7.876-9.834 6.04c-23.022 14.137-48.237 23.486-70.516 26.145-11.746 1.403-31.648 1.916-42.819 1.105zM0 296.202v-14.75l3.25-2.583c33.574-26.686 59.13-45.937 59.927-45.14.529.53 2.688 5.633 4.799 11.343l3.837 10.38-2.657 2.165C56.387 268.023 1.334 310.942.75 310.947c-.413.003-.75-6.632-.75-14.745zm213.344-24.246c-3.437-1.387-6.868-7.198-28.337-48.004-11.141-21.175-20.391-38.653-20.556-38.841-.874-.994-5.245 1.828-17.451 11.27-7.425 5.745-13.877 10.074-14.337 9.62-.937-.92-3.645-17.782-3.656-22.76-.007-2.969 1.247-4.186 16.704-16.216 9.192-7.154 17.967-13.282 19.5-13.62 1.534-.336 4.172-.308 5.863.063 4.02.883 5.792 3.724 25.876 41.484 15.967 30.02 17.578 32.806 18.46 31.924.243-.244 8.823-26.989 19.066-59.433 27.384-86.743 28.342-89.567 31.481-92.815 3.49-3.61 9.86-4.681 13.532-2.275 2.841 1.862 12.766 21.183 35.93 69.944 21.042 44.3 24.434 50.859 25.86 50.016 3.36-1.984 53.678-39.983 107.672-81.309 33.247-25.448 61.035-46.493 61.75-46.767 1.829-.702 1.875 26.61.049 28.901-1.776 2.228-95.237 74.124-153.613 118.169-26.118 19.706-25.056 20.116-43.116-16.668-7.072-14.403-18.185-37.377-24.696-51.053-6.511-13.677-12.286-24.865-12.832-24.864-1.218.003-2.762 4.595-21.594 64.23-17.906 56.706-25.71 80.581-27.492 84.115-1.381 2.739-6.896 5.93-10.058 5.822-1.017-.035-2.82-.455-4.005-.933z"/></symbol><symbol viewBox="0 0 265.99994 157.64075" id="deals--4" xmlns="http://www.w3.org/2000/svg"><path d="M109.5 156.996c-9.895-1.346-18.285-3.627-22.168-6.027C84.4 149.157 84 148.4 84 144.651c0-5.585 4.605-14.764 10.487-20.903 5.511-5.752 14.968-12 21.388-14.133l4.748-1.577-4.184-4.367c-8.74-9.12-12.482-22.93-9.031-33.32 6.696-20.16 33.123-25.326 46.946-9.177 9.88 11.543 8.239 29.94-3.793 42.497l-4.184 4.367 4.748 1.577c16.208 5.383 32.546 23.69 31.69 35.508-.292 4.028-.642 4.512-4.815 6.651-7.69 3.944-17.754 5.383-40.5 5.794-11.55.209-24.15-.049-28-.572zM0 104.726v-6.35l10.677-6.9c14.707-9.508 14.863-9.536 5.823-1.019l-8 7.537 47.09.04 47.089.04 1.366 2.75c1.938 3.899 1.954 3.864-3.33 7.215l-4.784 3.034H0v-6.348zm166 3.239c-4.982-3.27-4.976-3.256-3.045-7.142l1.366-2.75 47.09-.04 47.089-.039-8-7.57c-8.234-7.792-7.848-7.699 6.79 1.65l8.612 5.5.049 6.75.049 6.75-47.75-.078-47.75-.078-4.5-2.954zM63 80.425c-9.157-1.375-14.946-2.794-18.225-4.467C41.679 74.38 41 73.495 41 71.042c0-8.407 10.333-20.717 21.458-25.564l6.382-2.78-3.845-4.368c-7.234-8.218-8.837-18.167-4.372-27.127C64.194 4.036 69.207.783 77.487.255c7.545-.48 11.892 1.281 16.936 6.864 7.891 8.735 6.936 21.642-2.387 32.26l-2.951 3.362 5.35 2.217c2.942 1.22 7.076 3.71 9.186 5.533l3.836 3.316-2.776 4.006C100.95 63.196 98 71.229 98 76.004v3.91l-6.254.67c-3.44.368-7.602.517-9.25.33l-2.996-.34 4.912-5.277 4.912-5.277-4.31-10.526c-3.24-7.918-4.024-10.81-3.161-11.673 1.884-1.884 1.368-2.243-3.37-2.344-4.235-.09-4.417.012-2.934 1.65 1.453 1.606 1.22 2.619-2.895 12.596l-4.475 10.85 5.127 5.25 5.126 5.25-6.466-.136c-3.556-.075-7.591-.305-8.966-.512zm109.25-.01c-3.035-.437-3.25-.728-3.25-4.394 0-4.79-2.945-12.818-6.68-18.208l-2.777-4.006 3.836-3.316c2.11-1.824 6.244-4.314 9.186-5.533l5.35-2.217-2.951-3.362c-7.003-7.976-9.533-17.91-6.55-25.72 2.158-5.65 9.197-12.234 14.052-13.145 10.711-2.01 19.553 1.943 23.911 10.689 4.465 8.96 2.862 18.909-4.372 27.127l-3.845 4.368 6.382 2.78C215.664 50.323 226 62.635 226 71.037c0 3.496-3.15 5.537-12 7.774-5.476 1.384-35.328 2.531-41.75 1.605z"/></symbol><symbol viewBox="0 0 230.51448 254.79012" id="deals--5" xmlns="http://www.w3.org/2000/svg"><path d="M16.972 253.875c-7.371-2.242-11.737-6.068-14.91-13.065-2.004-4.423-2.04-6.063-2.061-95.884-.017-69.147.275-92.386 1.2-95.5 1.607-5.412 8.982-12.787 14.394-14.394 2.33-.692 9.813-1.222 17.25-1.222h13.134v11h-13.05c-14.145 0-17.307.843-20.302 5.413-1.5 2.291-1.648 10.674-1.648 93.601 0 99.988-.288 95.234 5.967 98.469 2.55 1.319 13.408 1.516 83.233 1.513 78.455-.004 80.375-.05 83.57-1.998 1.799-1.096 3.76-3.068 4.358-4.382.86-1.887 2.137-2.527 6.097-3.052 2.754-.365 5.253-.42 5.552-.12 1.142 1.142-2.007 8.748-5.065 12.23-1.759 2.004-5.451 4.692-8.205 5.974l-5.007 2.332-81-.076c-44.55-.042-82.128-.42-83.507-.839zm157.007-32.94c-37.084-11.916-40.64-63.828-5.5-80.272 26.546-12.422 56.46 3.221 61.49 32.156 3.025 17.406-6.813 37.234-22.438 45.224-9.675 4.946-23.46 6.135-33.552 2.892zm14.27-16.794c8.017-11.59 14.937-20.408 21.563-27.476 5.066-5.403 7.167-8.4 7.167-10.227 0-3.267-4-6.096-7.407-5.241-2.763.693-14.134 12.643-22.23 23.363-3.011 3.987-5.62 7.25-5.798 7.25-.177 0-3.535-4.275-7.462-9.5-6.154-8.188-7.543-9.5-10.05-9.5-3.553 0-6.053 2.31-6.053 5.592 0 2.181 13.252 21.516 19.3 28.158 3.486 3.828 7.218 3.005 10.97-2.42zM41.733 198.56c-1.363-3.708-.842-3.75 46.169-3.75h45.756l1.139 2.5 1.139 2.5H89.064c-36.585 0-46.972-.275-47.331-1.25zm0-38c-1.366-3.714-.903-3.75 47.808-3.75h47.395l-1.14 2.5-1.138 2.5H88.425c-36.074 0-46.333-.275-46.692-1.25zm152.496-35.483l-4.25-.382V90.22c0-37.431-.21-39.07-5.514-43.242-2.526-1.988-3.912-2.168-16.621-2.168h-13.865v-11l13.25.005c15.686.007 19.53.901 24.977 5.811 7.745 6.983 7.726 6.865 7.75 48.934.013 20.487-.315 37.171-.727 37.075-.413-.096-2.663-.347-5-.558zm-151.771-1.66c-1.618-1.182-1.703-1.633-.57-3 1.199-1.443 7.217-1.607 58.745-1.607 50.322 0 57.48.186 57.989 1.512.32.832.025 2.182-.654 3-1.79 2.157-112.566 2.249-115.51.096zm-.48-38.107c-.992-1.197-.992-1.804 0-3 1.08-1.302 8.829-1.5 58.516-1.5 51.968 0 57.329.15 57.895 1.626 1.671 4.355 1.426 4.374-58.41 4.374-49.23 0-56.92-.2-58-1.5zm17.656-37.33c-1.38-1.523-1.655-4.237-1.655-16.3 0-9.921.377-14.848 1.2-15.67.772-.772 4.784-1.205 11.25-1.215l10.05-.014 2.693-4.884c5.351-9.706 18.45-12.899 27.727-6.759 2.183 1.445 5.162 4.662 6.62 7.15l2.65 4.522h9.705c6.215 0 10.136.431 10.905 1.2.828.828 1.2 5.925 1.2 16.464 0 14.069-.152 15.346-1.935 16.3-1.237.663-15.78 1.036-40.345 1.036-35.941 0-38.517-.118-40.065-1.83zm46.89-21.625c5.506-5.506 1.464-15.545-6.259-15.545-2.469 0-4.265.825-6.363 2.923-3.727 3.726-3.841 7.833-.334 12 3.406 4.048 9.25 4.329 12.956.622z"/></symbol><symbol viewBox="0 0 431.82489 415.58435" id="deals--6" xmlns="http://www.w3.org/2000/svg"><path d="M199.826 414.047c-5.665-2.922-7.603-8.283-11.48-31.756-1.888-11.438-3.687-21.05-3.996-21.359-.31-.31-10.952.886-23.65 2.656l-23.09 3.217-4.393-2.575c-7.538-4.417-10.41-13.432-6.741-21.162 3.009-6.341 6.683-7.612 34.35-11.881 9.625-1.486 17.87-3.035 18.32-3.443.45-.407-.337-9.172-1.75-19.477s-2.57-21.598-2.57-25.097c0-5.934.235-6.596 3.49-9.852 8.907-8.906 22.002-6.386 25.875 4.98.848 2.49 2.982 13.508 4.74 24.485l3.2 19.959h2.729c1.501 0 12.067-1.351 23.48-3.002l20.75-3.002 4.08 2.252c5.745 3.172 8.656 7.869 8.656 13.965 0 7.813-3.676 13.071-10.434 14.923-2.236.613-12.84 2.53-23.566 4.26l-19.5 3.147-.254 3.978c-.14 2.188 1.036 12.754 2.611 23.479 2.83 19.26 2.842 19.545 1.014 23.192-4.123 8.22-14.326 12.005-21.87 8.113zm-145.5-98.787c-25.503-6.886-44.253-24.379-51.466-48.018-1.175-3.85-2.4-11.284-2.722-16.52-2.498-40.587 29.166-74.062 70.097-74.108 9.68-.01 14.546.817 23.998 4.086 3.249 1.123 6.497 2.042 7.218 2.042.722 0 4.515-4.163 8.43-9.25 25.899-33.66 53.705-57.301 84.445-71.799 24.543-11.574 60.327-21.403 91.177-25.042 9.217-1.088 13.57-2.203 12.294-3.15-2.283-1.696-17.685-15.307-22.296-19.704-7.047-6.72-8.675-9.6-8.675-15.358 0-8.349 7.004-14.697 16.214-14.697 4.51 0 5.348.486 17.015 9.877 16.071 12.936 40.363 33.814 49.642 42.666 6.94 6.62 7.412 7.346 7.868 12.085.34 3.532-.014 6.004-1.18 8.258-2.362 4.568-42.007 50.71-53.582 62.364-9.625 9.69-9.714 9.75-14.58 9.746-8.074-.006-14.437-5.45-15.993-13.681-.999-5.285 1.14-9.261 11.74-21.815 18.402-21.798 19.856-23.596 19.856-24.552 0-1.509-9.456-1.088-23.188 1.032-44.28 6.835-81.49 21.552-105.812 41.85-14.956 12.482-31.271 30.002-42.33 45.458l-5.573 7.787 2.793 4.738c4.375 7.42 7.816 16.987 9.163 25.48 1.443 9.103.74 23.93-1.472 30.975-9.656 30.772-36.843 50.883-68.49 50.666-5.275-.036-11.84-.673-14.59-1.416zm31.827-34.358c7.428-3.657 15.126-11.378 18.817-18.874 2.022-4.107 2.356-6.277 2.356-15.286 0-9.518-.266-11.043-2.848-16.301-3.634-7.402-10.957-14.724-18.354-18.354-5.253-2.578-6.783-2.845-16.298-2.845-9.594 0-11.016.253-16.487 2.94-7.633 3.747-14.355 10.473-18.072 18.082-2.63 5.385-2.921 6.97-2.93 15.978-.01 8.75.322 10.709 2.65 15.675 4.693 10.012 13.73 18.04 24.125 21.432 2.601.85 7.336 1.258 12.369 1.069 6.78-.256 9.253-.848 14.672-3.516zm252.914 23.845c-1.792-1.093-4.186-3.454-5.318-5.246-2.636-4.172-2.175-10.64 2.444-34.26 1.829-9.35 2.95-17.422 2.49-17.938-.459-.516-10.06-2.84-21.337-5.164-11.276-2.323-22.194-5.05-24.261-6.06-7.644-3.736-10.108-14.122-5.246-22.117 4.682-7.7 9.602-8.052 37.972-2.723 10.58 1.987 19.375 3.476 19.542 3.308.168-.168 2.154-9.53 4.415-20.805 2.321-11.577 5.078-22.452 6.334-24.983 5.156-10.393 18.975-11.287 26.12-1.69 3.022 4.06 2.703 12.404-1.32 34.493-1.893 10.395-2.955 18.663-2.456 19.114.484.437 7.405 2.037 15.38 3.555 18.492 3.52 28.763 6.125 31.673 8.032 3.045 1.995 6.328 8.58 6.326 12.689-.003 6.84-5.31 13.275-12.121 14.694-3.494.729-18.163-1.198-36.828-4.836-11.883-2.316-11.4-2.534-13.102 5.932-4.674 23.247-8.086 37.562-9.45 39.644-4.087 6.238-14.63 8.401-21.257 4.361zM41.154 137.851c-4.516-2.102-6.85-4.957-8.362-10.23-1.227-4.278.096-8.94 8.423-29.68 3.467-8.634 6.547-16.678 6.845-17.875.49-1.97-.81-2.758-13.803-8.354C9.22 60.927 5.652 58.875 3.012 53.742c-3.883-7.55-1.994-15.068 5.12-20.38 4.906-3.662 10.374-2.668 31.302 5.69 10.39 4.15 19.764 7.69 20.829 7.868 1.586.264 2.791-1.575 6.67-10.178C79.854 8.092 81.16 5.59 84.539 3.012c7.213-5.501 18.155-3.2 22.496 4.73 3.135 5.728 2.022 11.271-6.54 32.58-4.217 10.493-7.668 19.546-7.668 20.117 0 .57 7.76 4.36 17.243 8.42 25.365 10.86 30.142 14.63 30.142 23.786 0 5.763-3.103 11.087-7.998 13.726-5.106 2.752-11.92 1.353-31.387-6.446-9.625-3.856-18.427-7.278-19.56-7.605-2.39-.687-2.347-.765-12.154 21.922-3.567 8.25-7.383 16.473-8.482 18.274-3.792 6.218-12.47 8.595-19.476 5.335z"/></symbol><symbol viewBox="0 0 512 387.25241" id="deals--7" xmlns="http://www.w3.org/2000/svg"><path d="M212 386.96c-37.697-4.249-61.153-11.055-79.016-22.93-16.852-11.203-21.962-23.06-15.081-34.99 1.586-2.75 4.051-6.085 5.478-7.412l2.594-2.413 10.762 5.072c18.025 8.492 39.56 14.264 64.763 17.357 12.776 1.568 47.87 1.568 61.5 0 24.582-2.828 48.377-9.224 65.826-17.695 10.128-4.916 9.875-4.926 14.874.591 21.08 23.267-13.722 51.415-74.896 60.578-9.725 1.456-48.94 2.728-56.804 1.841zm-3.671-63.513c-40.181-3.584-75.548-17.296-88.25-34.216-8-10.655-7.357-19.462 2.139-29.331l3.983-4.14 10.15 4.8c26.838 12.696 58.103 18.89 95.655 18.95 37.748.06 69.396-6.156 96.706-18.994l10.213-4.801 3.494 3.868c10.543 11.669 10.06 22.468-1.51 33.859-22.55 22.197-78.404 34.838-132.58 30.005zM378 309.871c-2.475-.176-8.849-.818-14.164-1.427l-9.664-1.108 4.92-6.104c6.368-7.903 9.157-15.16 9.299-24.192.06-3.85-.209-8.125-.598-9.5l-.707-2.5 22.283.344c41.529.641 75.543-5.74 102.341-19.198l9.169-4.605 3.68 4.23c7.44 8.551 9.192 16.481 5.38 24.357-2.46 5.08-12.449 14.594-20.096 19.14C464.92 304.12 418.138 312.722 378 309.87zM85.5 284.408c-35.147-4.414-63.768-15.729-77.81-30.761-10.147-10.862-10.221-20.375-.249-31.836l3.68-4.23 8.69 4.364C40.777 232.473 68.297 239.226 98 241.13c5.775.37 11.039 1.1 11.697 1.62.879.695-.03 2.455-3.417 6.612-7.746 9.51-9.78 15.006-9.78 26.427 0 11.107 1.218 10.153-11 8.618zm127.37-23.882c-37.727-2.765-70.575-13.658-87.101-28.886-9.388-8.65-12.71-15.894-10.703-23.344 5.18-19.238 36.507-35.14 83.434-42.35 13.502-2.075 46.023-2.332 62-.491 34.71 4 63.813 14.39 78.818 28.14 14.283 13.087 14.338 24.753.179 37.727-6.84 6.268-21.225 14.326-32.997 18.485-24.353 8.604-62.655 12.99-93.63 10.72zM381 246.946c-13.755-1.174-27-2.705-27-3.122 0-.262 1.795-2.516 3.99-5.01 8.987-10.21 12.712-24.086 9.469-35.274-.38-1.306 3.014-1.502 26.303-1.516 20.525-.012 29.41-.427 38.238-1.787 24.076-3.708 47.931-10.78 61.892-18.35l6.391-3.465 3.375 3.271c4.363 4.23 8.342 12.264 8.342 16.847 0 9.67-10.418 21.256-26.725 29.72-16.363 8.494-34.348 13.74-57.275 16.703-11.786 1.523-38.956 2.67-47 1.983zm-298-26.03c-22.225-3.005-40.258-8.342-56.275-16.656C10.418 195.796 0 184.21 0 174.54c0-4.583 3.979-12.617 8.342-16.847l3.375-3.27 6.391 3.465c19.372 10.503 51.203 18.22 83.23 20.18l11.84.723-4.463 4.625c-9 9.326-13.4 20.851-12.334 32.314.566 6.093.448 6.8-1.124 6.707-.966-.056-6.482-.741-12.257-1.522zm282.044-38.582c-9.706-1.078-12.602-2.235-19.544-7.808-10.73-8.614-33.267-18.26-53.645-22.96l-9.645-2.224-2.605-4.786c-4.64-8.524-3.183-16.464 4.678-25.504l3.469-3.989 10.874 5.195c12.094 5.778 18.687 8.118 33.236 11.796 51.927 13.126 119.796 7.77 160.433-12.662l7.964-4.004 3.888 3.796c15.566 15.2 7.716 32.319-21.647 47.21-14.917 7.564-37.636 13.586-60.71 16.092-11.575 1.257-44.86 1.168-56.746-.152zM88.5 158.434c-22.436-2.696-45.335-8.937-59.715-16.276-28.601-14.595-36.33-31.94-20.932-46.974l3.888-3.796 7.964 4.004c16.328 8.21 38.4 14.405 63.295 17.766 15.415 2.08 49.86 2.363 65.5.537 24.692-2.884 49.743-9.741 67.083-18.362l8.635-4.293 3.484 4c7.54 8.658 9.242 16.853 5.225 25.15-5.912 12.213-27.64 25.11-53.592 31.812-21.49 5.55-31.107 6.725-57.835 7.07-13.75.178-28.6-.11-33-.638zm286-38.543c-1.65-.192-7.275-.835-12.5-1.428-46.607-5.288-85-26.138-85-46.16 0-6.447 1.932-10.707 7.609-16.776 12.68-13.555 39.425-24.449 72.391-29.485 14.768-2.256 44.834-3.048 60.58-1.595C470.72 29.349 512 50.223 512 72.192c0 5.781-3.532 11.727-11.16 18.79-19.877 18.403-62.372 29.885-108.84 29.408-7.975-.082-15.85-.307-17.5-.5zM93 95.52C47.333 90.753 11.207 75.06 1.968 55.975-8.862 33.603 26.966 9.9 84.5 1.374c13.748-2.037 55.055-1.752 69.29.478 24.145 3.783 45.667 10.582 59.552 18.813 8.34 4.943 18.083 14.255 20.188 19.293 9.383 22.457-25.436 46.103-79.726 54.142-12.273 1.817-48.828 2.672-60.804 1.421z"/></symbol><symbol viewBox="0 0 192 256" id="deals--8" xmlns="http://www.w3.org/2000/svg"><path d="M0 128V0h128.512l31.744 31.756L192 63.512V256H0V128zm182 26.5V63h-53V10H10v236h172v-91.5zM28 218v-5h76v10H28v-5zm0-36v-5h38v10H28v-5zm0-17.5V160h134v9H28v-4.5zm0-19V141h134v9H28v-4.5zm0-19V122h134v9H28v-4.5zm0-19.507v-5.007l66.75.257 66.75.257.305 4.75.305 4.75H28v-5.007zm0-19v-5.007l66.75.257 66.75.257.305 4.75.305 4.75H28v-5.007zM28 57.5V53h67v9H28v-4.5zm0-20V33h67v9H28v-4.5zm140 15.763C168 52.282 139.743 24 138.763 24c-.42 0-.763 6.75-.763 15v15h15c8.25 0 15-.332 15-.737z"/></symbol><symbol viewBox="0 0 221.07385 244.89629" id="deals--9" xmlns="http://www.w3.org/2000/svg"><path d="M106.173 242.399c-2.869-3.647-3.528-8.43-2.478-17.98.498-4.534.559-8.03.135-7.768-2.278 1.408-4.078 7.588-4.533 15.566-.312 5.478-.918 8.782-1.612 8.78-.61-.003-2.585-.903-4.386-2.001-6.302-3.842-6.959-11.524-1.828-21.367 2.386-4.578 2.887-6.198 1.682-5.446-3.95 2.467-8.944 12.42-9.035 18.008-.063 3.872-1.518 4.253-6.217 1.626-5.28-2.952-7.007-5.537-4.61-6.902 2.688-1.53 6.01-9.907 5.42-13.665-.454-2.889-.25-3.25 1.837-3.25 1.291 0 5.088-.853 8.437-1.895 6.751-2.101 7.912-1.541 2.664 1.285-4.122 2.22-9.2 7.319-8.242 8.277.379.378 1.92-.46 3.428-1.86 5.168-4.806 7.968-6.08 11.79-5.364l3.559.668-3.18 3.622c-3.463 3.944-5.93 9.034-5.93 12.235 0 3.611 1.797 2.16 3.436-2.775 2.293-6.902 6.322-11.27 9.733-10.553 2.578.543 2.69.856 3.308 9.211.93 12.582 1.064 12.687 1.905 1.502.749-9.95.816-10.159 3.441-10.711 3.383-.712 7.3 3.479 9.832 10.52 1.808 5.027 3.345 6.317 3.345 2.806 0-3.02-2.336-8.04-5.473-11.76-1.527-1.811-2.607-3.438-2.401-3.615 2.824-2.43 4.848-2.423 8.517.034 2.121 1.42 4.868 3.513 6.103 4.649 1.236 1.136 2.553 1.759 2.927 1.384.953-.952-4.138-6.057-8.248-8.27-5.248-2.826-4.087-3.386 2.664-1.285 3.35 1.042 7.146 1.895 8.437 1.895 2.088 0 2.292.361 1.838 3.25-.591 3.758 2.73 12.134 5.42 13.665 2.352 1.34.7 3.913-4.38 6.819-5.468 3.128-6.402 2.912-6.414-1.484-.012-4.617-3.8-12.897-7.43-16.242l-2.704-2.492 3.071 6.492c4.704 9.942 3.953 17.266-2.152 20.988-1.801 1.098-3.775 1.998-4.386 2-.693.002-1.3-3.3-1.612-8.779-.454-7.96-2.254-14.156-4.52-15.559-.416-.258-.52 2.976-.23 7.187.749 10.884-.205 17.071-2.98 19.318-3.127 2.532-5.537 2.3-7.948-.764zM64.074 212.5c0-.825.45-1.5 1-1.5s1 .675 1 1.5-.45 1.5-1 1.5-1-.675-1-1.5zm107.39.073c-.819-2.133-.054-5.862 1.292-6.305 1.646-.542 3.56 3.395 2.806 5.77-.724 2.28-3.3 2.616-4.098.535zm-5.292-.955c-.862-1.039-.66-1.92.854-3.739l1.982-2.379.033 3.19c.038 3.643-1.215 4.921-2.869 2.928zm11.86-.697c-.766-1.432-.812-2.467-.138-3.141 1.362-1.362 3.18-.092 3.18 2.22 0 2.818-1.744 3.346-3.042.92zm-116.958.26c0-1.208 1.897-2.617 2.59-1.924.253.252-.227 1.027-1.066 1.723-.95.789-1.524.865-1.524.201zm-7-3.181c0-1.1.45-2 1-2s1 .9 1 2-.45 2-1 2-1-.9-1-2zm3.759-.725c-.262-1.526-.837-3.675-1.278-4.775-.707-1.765-.489-1.716 1.859.424 2.979 2.715 3.315 4.288 1.277 5.979-1.11.921-1.476.601-1.858-1.628zm46.54.502c-.885-.977-1.95-1.777-2.369-1.777-.418 0-1.861-.981-3.208-2.18l-2.447-2.18 2.966-2.496c2.563-2.157 3.242-2.323 5.001-1.225 1.63 1.018 2.499 1.023 4.362.025 1.873-1.002 2.634-.991 3.896.056 1.282 1.064 2.008 1.066 3.976.013 2.133-1.142 2.741-1.008 5.329 1.169l2.92 2.458-2.447 2.18c-1.346 1.199-2.712 2.18-3.034 2.18-.323 0-1.428.762-2.457 1.693-2.614 2.366-10.376 2.418-12.489.084zm-57.299-.055c0-1.689 2.86-5.722 4.057-5.722 1.064 0 1.252 3.03.336 5.418-.723 1.884-4.393 2.138-4.393.304zm114.405-1.86c-2.813-3.157-7.158-4.666-15.66-5.436l-7.593-.688-.648-5.12c-.357-2.814-.884-5.944-1.17-6.954-.448-1.573-.233-1.68 1.506-.75 3.213 1.72 4.16 1.298 4.16-1.852 0-2.585.331-2.916 2.75-2.75 2.498.17 2.797-.18 3.266-3.812.485-3.765.588-3.872 1.75-1.816.679 1.202 1.234 3.053 1.234 4.115 0 1.062.934 3.118 2.075 4.569 2.269 2.884 1.877 3.306-3.566 3.839-1.832.18-3.113.934-3.305 1.947-.329 1.735 3.017 3.21 9.796 4.318 3.253.532 3.675.286 5.97-3.478 2.66-4.367 6.491-7.445 8.058-6.477.535.33.972 2.824.972 5.542 0 4.534-.195 4.941-2.375 4.941-4.382 0-8.625 1.239-8.625 2.518 0 1.985 2.435 2.474 12.832 2.582 5.317.054 10.659.392 11.87.75 2.162.638 2.168.694.368 3.07l-1.835 2.42-3.827-1.816c-4.895-2.323-9.02-2.187-12.538.414-3.41 2.521-3.147 2.525-5.465-.076zM42.48 201.848c-.391-.633.118-1.758 1.132-2.5 2.188-1.6 2.507-1.622 4.462-.314 1.298.87 1.24 1.203-.441 2.485-2.328 1.776-4.185 1.895-5.153.33zm15.094-2.484c-2.517-2.265-3.052-2.431-3.323-1.032-.686 3.537-3.177.86-3.177-3.414 0-2.35 2.237-2.464 5.567-.282 2.914 1.91 9.932 1.436 15.943-1.076 3.148-1.315 3.54-1.796 2.49-3.06-.685-.825-2.765-1.5-4.622-1.5-3.688 0-4.226-1.294-1.846-4.441.807-1.068 1.468-2.785 1.468-3.816 0-1.03.555-2.857 1.234-4.059 1.162-2.056 1.265-1.95 1.75 1.816.469 3.633.769 3.983 3.266 3.812 2.419-.166 2.75.165 2.75 2.75 0 3.198 2.445 4.039 4.913 1.688 1.066-1.016 1.21-.876.772.75-.297 1.1-.832 4.301-1.188 7.113l-.647 5.114-6.675.62c-3.671.342-8.7.868-11.175 1.17-3.9.474-4.9.188-7.5-2.153zm104-.364c-.34-.55.11-1 1-1s1.34.45 1 1c-.34.55-.79 1-1 1-.21 0-.66-.45-1-1zm5 0c-.34-.55.11-1 1-1s1.34.45 1 1c-.34.55-.79 1-1 1-.21 0-.66-.45-1-1zm6 0c-.34-.55.11-1 1-1s1.34.45 1 1c-.34.55-.79 1-1 1-.21 0-.66-.45-1-1zm6 0c-.34-.55-.141-1 .441-1 .583 0 1.06.45 1.06 1s-.2 1-.442 1-.719-.45-1.059-1zm5 0c-.34-.55.11-1 1-1s1.34.45 1 1c-.34.55-.79 1-1 1-.21 0-.66-.45-1-1zm-78.763-3.691c-1.371-1.372-2.11-1.46-4.215-.5-2.424 1.104-2.52 1.035-1.921-1.354.615-2.453.528-2.5-3.485-1.858l-4.116.659v-3.579c0-2.366.593-3.91 1.75-4.56 3.317-1.862-1.24-2.417-6.703-.815l-5.047 1.479v-3.016c0-2.817-.197-2.976-3-2.415-2.913.583-3 .49-3-3.208 0-4.732-.69-5.473-3.354-3.607-1.15.806-2.97 1.465-4.043 1.465-1.924 0-1.924-.032.038-2.25 1.095-1.238 2.783-3.525 3.752-5.084.97-1.558 3.415-3.515 5.435-4.35 2.02-.833 4.46-2.215 5.422-3.07 1.643-1.46 1.752-1.224 1.774 3.849.03 6.75 1.42 12.937 3.154 14.036.727.461 3.572.848 6.322.86 6.225.025 11.632 1.483 14.67 3.954 2.091 1.7 2.503 1.74 4.014.38 2.71-2.438 8.898-4.233 14.816-4.296 3.025-.033 6.113-.448 6.862-.923 1.616-1.024 3.034-7.67 3.095-14.511.04-4.596.153-4.807 1.793-3.35.963.856 3.354 2.218 5.314 3.026 4.329 1.787 12.091 11.729 9.157 11.729-.977 0-2.717-.66-3.867-1.465-2.664-1.866-3.354-1.125-3.354 3.607 0 3.698-.087 3.79-3 3.208-2.806-.561-3-.404-3 2.433v3.033l-4.88-1.56c-5.236-1.675-10.264-1.044-6.87.86 1.158.65 1.75 2.195 1.75 4.561v3.579l-4.116-.659c-4.013-.641-4.1-.595-3.484 1.858.597 2.38.495 2.454-1.88 1.372-2.052-.935-2.85-.839-4.354.522-1.725 1.562-1.957 1.54-3.673-.356l-1.831-2.024-2.13 2.002c-1.987 1.866-2.243 1.889-3.795.338zm71.263-4.25c0-2.718.432-5.208.96-5.534 1.407-.87 9.04 6.385 9.04 8.591 0 1.594-.77 1.884-5 1.884h-5v-4.941zM37.228 188.25c-11.506-11.366-14.107-17.766-3.44-8.466 8.861 7.726 13.586 12.922 12.842 14.126-1.205 1.95-2.467 1.19-9.402-5.66zM172.574 193c-.34-.55.11-1 1-1s1.34.45 1 1c-.34.55-.79 1-1 1-.21 0-.66-.45-1-1zm0-5c-.34-.55.11-1 1-1s1.34.45 1 1c-.34.55-.79 1-1 1-.21 0-.66-.45-1-1zm-.5-6.14c0-.627-.779-1.71-1.73-2.405-1.608-1.175-1.548-1.45.843-3.84l2.575-2.576 2.33 2.48 2.33 2.481-2.348 2.5c-2.524 2.687-4 3.189-4 1.36zm-64.36-3.304c-1.023-.79-5.358-1.743-9.634-2.116-4.275-.373-8.388-1.057-9.14-1.521-1.082-.669-1.428-6.036-1.665-25.881L86.976 124h47.098v23.435c0 12.89-.439 24.59-.975 26-.888 2.336-1.49 2.569-6.75 2.609-3.176.024-7.575.729-9.775 1.566-6.329 2.408-6.892 2.468-8.86.946zm-.64-7.056c.999-1.203.973-1.83-.127-3.164-1.251-1.516-1.163-1.552.997-.4 1.303.694 2.593 2.118 2.866 3.163.523 1.999 3.726 2.528 6.12 1.012.774-.491 2.772-.424 4.661.156 5.175 1.588 6.494.608 5.318-3.95-.542-2.1-.98-4.584-.976-5.522.005-.973-2.126-3.018-4.97-4.768-4.643-2.857-4.898-2.91-3.771-.795.664 1.247 2.115 3.5 3.224 5.006 1.109 1.505 1.771 2.982 1.473 3.28-.3.3-1.356-.696-2.35-2.211-4.072-6.216-7.465-7.886-7.465-3.677 0 .832-.707 2.22-1.571 3.084-1.429 1.429-1.718 1.426-3.178-.034-1.308-1.309-1.393-2.073-.456-4.129 1.439-3.157 6.196-5.155 12.136-5.096 4.228.042 4.593.25 4.886 2.795.174 1.512.795 2.75 1.38 2.75 1.664 0 .106-7.305-1.865-8.747-1.855-1.356-1.427-1.61 1.086-.646.87.334 1.582 1.459 1.582 2.5s.45 1.893 1 1.893c1.647 0 1.136-2.558-1.072-5.365-2.392-3.04-3.589-3.252-6.007-1.064-1.585 1.435-2.115 1.386-6.079-.558-2.388-1.172-3.217-1.843-1.842-1.491 7.358 1.882 7.372 1.882 6.55-.124-1.642-4.012-1.885-5.723-.707-4.995.636.393 1.157 1.363 1.157 2.156 0 .793.396 1.441.879 1.441 1.302 0 3.439-5.73 2.778-7.452-.918-2.392-5.55-3.043-8.644-1.215-3.195 1.887-4.013 1.378-4.013-2.5 0-3.195-.755-3.485-3.559-1.365-2.399 1.815-4.43 1.943-4.473.282-.017-.688-.753-2.15-1.634-3.25-1.202-1.5-1.459-1.58-1.027-.321.317.923.878 3.398 1.246 5.5.606 3.451.532 3.64-.759 1.96-1.362-1.774-1.557-1.71-4.153 1.376-2.751 3.27-2.911 5.284-.244 3.07 1.188-.986 1.358-.862.95.694-.334 1.278.353 2.45 2.111 3.601 3.186 2.088 2.354 3.957-1.394 3.134-4.08-.896-5.466 1.278-4.084 6.41.603 2.242 1.514 4.076 2.023 4.076 1.503 0 3.045-3.711 2.324-5.592-.477-1.242-.307-1.514.6-.954.834.516 1.043 1.85.613 3.914-.36 1.723-.903 4.932-1.209 7.132-.306 2.2-.951 4.491-1.435 5.092-1.05 1.305-.148 2.408 1.97 2.408 1.046 0 1.209-.326.51-1.023-1.498-1.499-.464-6.587 1.745-8.586 1.813-1.641 1.978-1.638 3.224.065 1.128 1.544.986 2.122-1.016 4.124-1.281 1.281-2.329 3.16-2.329 4.175 0 3.868 4.578 5.664 7 2.745zm-4.5-2.5c-.34-.55-.141-1 .441-1 .583 0 1.06.45 1.06 1s-.2 1-.442 1-.719-.45-1.059-1zm-79.833 4.333c-1.285-1.284-.67-3.272.833-2.695.825.317 1.5 1.203 1.5 1.969 0 1.47-1.212 1.848-2.333.726zM12.574 170c-.34-.55-1.851-1-3.359-1-2.997 0-5.14-1.595-5.14-3.825 0-1.046.787-1.267 2.96-.833 3.75.75 5-1.026 1.627-2.309-2.998-1.14-4.606-5.774-2.473-7.125 2.278-1.443 3.854-1.044 6.298 1.592 3.065 3.308 3.587 3.162 3.587-1 0-1.925.439-3.5.974-3.5 1.174 0 4.026 5.278 4.026 7.45 0 .853.45 1.55 1 1.55s1 .45 1 1-.648 1-1.44 1c-.793 0-1.727.461-2.075 1.025-.349.563-.094.9.566.75 2.155-.494 2.122 2.052-.055 4.23-1.695 1.694-2.422 1.886-3.563.94-1.02-.847-1.433-.866-1.433-.067 0 1.392-1.665 1.473-2.5.122zm4.324-6.336c.393-2.027-2.532-3.356-4.049-1.84-.787.788-.727 1.53.218 2.667 1.561 1.882 3.382 1.489 3.831-.827zM14.074 163c0-.55.45-1 1-1s1 .45 1 1-.45 1-1 1-1-.45-1-1zm-3-3.941c0-1.18-1.95-2.442-2.667-1.726-.716.717.546 2.667 1.726 2.667a.944.944 0 0 0 .941-.941zm38.071.844c-2.429-.97-2.428-.971 2.5-5.989 4.783-4.87 4.938-4.942 5.246-2.466.368 2.97.937 3.113 3.96.995 1.742-1.22 2.223-1.268 2.223-.222 0 2.391-3.188 5.96-6.598 7.385-3.825 1.598-4.052 1.607-7.33.297zm16.964-.837C64.79 156.6 64.77 153 66.074 153c.55 0 1 .675 1 1.5 0 1.993.99 1.897 2.558-.248 1.916-2.62 2.524-1.127 1.242 3.049-1.246 4.06-3.158 4.767-4.765 1.765zm84.165-1.765c-1.281-4.176-.673-5.67 1.242-3.05 1.569 2.146 2.558 2.242 2.558.249 0-.825.45-1.5 1-1.5 1.305 0 1.284 3.601-.035 6.066-1.607 3.002-3.519 2.294-4.765-1.765zm14.188 2.719c-2.506-1.013-6.388-5.698-6.388-7.712 0-1.188.365-1.166 2.223.135 2.942 2.062 3.777 1.964 3.777-.443 0-2.963 1.352-2.46 5.384 2.003 4.221 4.673 4.41 5.551 1.366 6.367-2.834.76-3.74.71-6.362-.35zM33.54 155.048c-2.144-.869-5.025-3.83-4.357-4.478.497-.483 16.132-8.57 16.568-8.57 1.106 0 .05 4.168-1.176 4.638-.825.317-1.5.978-1.5 1.469 0 1.437 3.361 1.029 5.842-.709 1.258-.881 2.56-1.33 2.893-.996 1.032 1.031-4.027 5.766-8.235 7.708-4.32 1.994-6.847 2.23-10.035.938zm49.143-.855c-1.194-3.536-6.609-5.737-10.65-4.328-2.473.862-3.6.847-4.697-.064-.794-.658-2.865-1.106-4.602-.994-2.558.165-3.476-.356-4.825-2.736-1.31-2.313-2.475-3.008-5.46-3.256-3.105-.258-3.9-.77-4.374-2.815-.491-2.119-1.233-2.547-4.867-2.811l-4.288-.312.665-3.936c.728-4.309.703-4.333-5.882-5.431l-3.871-.646 2.621-2.737c1.442-1.505 2.622-3.253 2.622-3.885 0-.632-2.08-2.069-4.624-3.194-4.01-1.773-4.45-2.253-3.32-3.614.715-.863 2.85-2.364 4.744-3.336l3.443-1.766-4.451-2.608c-5.904-3.46-7.672-5.555-5.728-6.785.79-.5 3.097-.915 5.127-.924 4.835-.02 5.431-1.273 2.705-5.683-1.663-2.692-2.362-5.662-2.698-11.482-.25-4.317-.06-7.844.424-7.838.483.007 1.853 1.47 3.045 3.25A244.7 244.7 0 0 0 38.6 83.18c2.673 3.653 5.75 14.797 4.583 16.6-.335.518-2.125 1.719-3.977 2.668l-3.368 1.727 3.555 3.663 3.556 3.663-3.068 3.411-3.067 3.412 3.748 1.923c3.735 1.916 3.745 1.938 3.095 6.838L43.005 132h9.069v9.188l4.75-.635c4.547-.608 4.825-.502 6.497 2.481l1.746 3.116 2.639-2.075c3.345-2.631 8.358-2.657 11.66-.06 2.737 2.153 5.105 7.83 4.476 10.727-.316 1.454-.517 1.358-1.16-.549zm54.432.025c-.06-3.476 2.475-8.765 5.077-10.587 3.192-2.236 8.086-2.046 11.242.437l2.629 2.067 2.075-3.516c1.847-3.132 2.348-3.413 4.571-2.568 5.225 1.987 6.366 1.35 6.366-3.551V132h9.068l-.652-4.916c-.65-4.9-.64-4.922 3.096-6.838l3.748-1.923-3.068-3.412-3.068-3.411 3.556-3.663 3.555-3.663-3.368-1.727c-1.852-.95-3.642-2.15-3.977-2.668-1.167-1.803 1.91-12.947 4.583-16.6a244.718 244.718 0 0 0 4.86-6.917c1.191-1.78 2.561-3.243 3.045-3.25.483-.006.674 3.52.424 7.838-.337 5.82-1.035 8.79-2.7 11.482-2.725 4.41-2.128 5.663 2.706 5.683 2.03.009 4.337.424 5.127.924 1.941 1.228.177 3.324-5.693 6.764l-4.416 2.589 4.586 2.522c2.523 1.387 4.587 2.913 4.587 3.39 0 .477-2.025 1.735-4.5 2.796-2.475 1.06-4.5 2.36-4.5 2.888 0 .527 1.145 2.319 2.544 3.982l2.544 3.023-3.794.631c-6.495 1.081-6.53 1.115-5.804 5.417l.665 3.936-4.288.312c-3.634.264-4.375.692-4.867 2.811-.474 2.045-1.269 2.557-4.373 2.815-2.986.248-4.15.943-5.46 3.256-1.35 2.38-2.268 2.9-4.826 2.736-1.737-.112-3.808.336-4.602.994-1.085.902-2.23.924-4.622.09-4.053-1.413-8.61.303-10.617 3.997-1.387 2.55-1.42 2.559-1.46.33zm40.352-.203c-4.432-2.248-9.11-6.63-8.127-7.613.333-.333 1.635.115 2.893.996 2.48 1.738 5.842 2.146 5.842.709 0-.491-.675-1.152-1.5-1.469-.825-.316-1.5-1.745-1.5-3.175v-2.6l2.893 2.06c1.591 1.134 5.624 3.352 8.961 4.93l6.07 2.87-2.319 2.178c-3.398 3.193-8.298 3.606-13.213 1.114zM21.574 145.19c-3.794-2.409-6.88-5.845-5.815-6.474.448-.265 2.39-.79 4.315-1.165 1.925-.376 6.365-1.577 9.866-2.669 3.501-1.091 6.575-1.775 6.831-1.52 1.026 1.027-1.801 4.438-4.659 5.621-4.045 1.676-3.91 3.39.212 2.674a252.7 252.7 0 0 1 7.25-1.113c3.922-.539 3.88-.49-2.165 2.502-8.152 4.034-12.03 4.56-15.835 2.144zm167.5.385c-1.925-.735-4.962-1.885-6.75-2.554-3.962-1.485-4.323-3.452-.5-2.73 1.513.286 4.438.846 6.5 1.245 4.795.927 4.8-.472.01-3.037-4.37-2.339-6.003-6.26-2.11-5.064 1.292.397 5.725 1.615 9.85 2.706 11.19 2.96 10.62 2.566 7.9 5.48-2.837 3.036-7.083 5.395-9.6 5.334-.99-.024-3.375-.645-5.3-1.38zM79.675 141.83c-4.458-3.236-6.461-3.47-10.743-1.256-1.674.865-3.136 1.428-3.248 1.25-.113-.178-.757-1.607-1.432-3.176-1.244-2.888-2.376-3.044-7.585-1.045-1.274.489-1.593-.104-1.593-2.96 0-3.77-1.95-5.643-5.875-5.643-2.903 0-3.42-1.528-1.666-4.921 1.866-3.607 1.898-4.066.291-4.124-.687-.025-2.544-.598-4.126-1.273l-2.876-1.229 2.823-3.355 2.824-3.356-3.22-2.877-3.22-2.876 3.597-1.715c3.07-1.464 3.512-2.086 3.018-4.245-.319-1.39-.844-5.004-1.166-8.029l-.587-5.5 1.948 3.038c1.071 1.671 5.422 6.208 9.668 10.082l7.72 7.044-1.69 5.817c-1.53 5.26-1.545 6.123-.168 9.01 1.89 3.966 7.012 6.509 13.106 6.509 4.771 0 5.668-.868 3.1-3-2.085-1.73-1.873-3 .5-3 1.1 0 2-.357 2-.794 0-.437 2.58-1.589 5.733-2.56 3.154-.971 7.17-2.86 8.923-4.198l3.188-2.431.679 3.09.678 3.09 3.443-3.337c2.86-2.772 3.602-3.085 4.383-1.848.518.818.948 2.024.957 2.679.034 2.667 2.138 2.254 3.139-.616.59-1.691 1.344-3.075 1.676-3.075.333 0 2.043 1.394 3.801 3.098l3.197 3.098.679-3.09.678-3.09 3.189 2.432c1.753 1.338 5.768 3.227 8.922 4.198 3.154.971 5.734 2.123 5.734 2.56 0 .437.9.794 2 .794 2.373 0 2.584 1.27.5 3-2.56 2.125-1.676 3 3.032 3 6.496 0 11.135-2.234 13.072-6.296 1.505-3.155 1.5-3.836-.066-9.223l-1.691-5.817 7.72-7.044c4.246-3.874 8.597-8.411 9.668-10.082l1.948-3.038-.587 5.5c-.322 3.025-.847 6.638-1.165 8.03-.497 2.17-.05 2.78 3.142 4.303l3.722 1.775-3.357 2.803-3.357 2.802 2.836 3.37 2.835 3.37-2.876 1.229c-1.582.675-3.438 1.248-4.126 1.273-1.563.056-1.563.052.25 4.39.825 1.975 1.5 3.83 1.5 4.123 0 .293-2.025.532-4.5.532h-4.5v4.607c0 3.804-.278 4.5-1.593 3.996-5.21-2-6.341-1.843-7.584 1.045-.675 1.569-1.32 2.998-1.432 3.176-.113.178-1.574-.385-3.248-1.25-4.323-2.236-6.282-1.98-10.993 1.432l-4.15 3.007v-9.925c0-5.458-.273-10.636-.607-11.506-.531-1.385-3.766-1.582-25.98-1.582H85.111l-.52 2.25c-.286 1.238-.632 6.336-.769 11.33l-.249 9.08-3.899-2.83zm-67.302-9.72c-1.761-1.112-3.888-3.348-4.726-4.968-2.02-3.907-1.29-4.151 12.259-4.109l10.668.034-2.36 1.966c-1.444 1.203-3.85 1.967-6.192 1.967-2.106 0-4.074.395-4.373.878-.723 1.17 4.274 2.103 11.8 2.204l6.125.081-3.219 1.409c-1.77.774-6.27 1.667-10 1.984-5.719.485-7.282.258-9.982-1.446zm179.435.473c-6.885-1.852-6.892-2.583-.026-2.583 7.318 0 12.453-.93 11.717-2.122-.299-.483-2.267-.878-4.373-.878-2.342 0-4.748-.764-6.191-1.967l-2.36-1.966 11-.018c6.05-.01 11.547.33 12.217.755 1.945 1.236-2.199 7.081-6.208 8.756-4.158 1.738-9.373 1.745-15.776.023zM9.717 118.972c-1.572-.471-3.772-1.67-4.888-2.664-4.087-3.638-6.702-14.27-3.178-12.917C6.61 105.295 20.9 109 23.28 109c3.317 0 3.638 1.478.667 3.068-1.36.727-4.516.909-8.75.503-6.043-.58-6.455-.502-4.7.884 1.058.836 3.533 1.788 5.5 2.115 4.255.71 13.076 3.414 13.076 4.01 0 .775-16.468.258-19.357-.608zm185.31-.571c1.9-.865 6.044-2.029 9.21-2.587 3.167-.557 6.319-1.69 7.004-2.516 1.097-1.32.453-1.417-5.333-.797-4.313.462-7.314.313-8.707-.433-2.972-1.59-2.65-3.068.666-3.068 2.417 0 16.695-3.715 21.784-5.668 1.521-.584 1.663-.154 1.167 3.54-1.287 9.593-5.594 12.479-19.156 12.835-9.876.26-10.015.233-6.635-1.306zm-104.952-4.616c.005-1.768 3.301-15.353 4.207-17.343l1.196-2.623 2.771 3.34 2.771 3.341.027-3.77.027-3.77 3.946 2.013c2.171 1.107 4.407 2.804 4.97 3.77.582.999 1.036 1.211 1.054.492.033-1.376 5.758-5.225 7.78-5.231.739-.002 1.261 1.325 1.277 3.246l.027 3.25 2.771-3.34 2.771-3.341 1.196 2.623c1.487 3.264 4.35 16.75 3.694 17.405-.265.265-2.265-1.392-4.444-3.682s-4.15-4.165-4.38-4.165c-.23 0-1 1.4-1.708 3.11l-1.288 3.111-1.738-3.36c-2.029-3.924-2.568-3.958-4.96-.312l-1.78 2.714-1.62-3.131c-.89-1.723-1.822-3.132-2.07-3.132-.247 0-1.285 1.627-2.305 3.615l-1.855 3.616-1.29-3.116c-1.597-3.854-2.114-3.87-4.866-.147-1.808 2.446-6.184 5.856-6.181 4.817zm-72.86-9.25C4.87 99.95-.298 93.592.332 83.77c.201-3.15.678-6.04 1.059-6.421.38-.38 2.378.728 4.438 2.464 3.376 2.846 14.989 10.934 19.84 13.819 2.417 1.437 1.59 2.3-2.903 3.03-2.927.475-4.572-.06-9.31-3.023-3.166-1.98-5.907-3.448-6.092-3.263-1.088 1.087 1.579 3.699 7.52 7.365 7.272 4.488 12.554 9.295 10.114 9.206-.783-.029-4.286-1.115-7.783-2.414zm180.422-.667c2.234-1.868 6.606-4.939 9.716-6.823 4.972-3.014 7.483-5.617 6.431-6.668-.185-.185-2.926 1.283-6.091 3.263-4.738 2.963-6.384 3.498-9.311 3.023-4.493-.73-5.32-1.593-2.903-3.03 4.851-2.885 16.464-10.973 19.84-13.819 2.06-1.736 4.038-2.864 4.395-2.507 1.297 1.297 1.563 10.549.404 14.06-2.13 6.453-11.603 12.679-23.044 15.144l-3.5.754 4.063-3.397zM89.754 93.5c-.365-3.3-.964-7.084-1.33-8.408-.602-2.178-.436-2.337 1.742-1.67 6.194 1.9 7.261 1.937 6.572.226l-1.25-3.094c-.49-1.21-.044-1.27 2.75-.366 1.835.593 3.995 1.395 4.8 1.782 1.388.666 5.279 10.11 4.492 10.904-.204.206-1.99-.582-3.97-1.75-4.507-2.659-4.486-2.661-4.486.487v2.61l-2.064-2.36c-1.135-1.299-2.273-1.911-2.528-1.361-.255.55-1.273 2.8-2.263 5l-1.8 4-.665-6zm38.791.665l-1.927-5.336-2.272 2.641-2.272 2.642v-2.556c0-3.085.01-3.084-4.443-.457-3.502 2.066-3.557 2.068-3.557.122 0-2.853 2.852-9.255 4.282-9.613.67-.168 2.68-.784 4.468-1.37 3.567-1.168 3.74-1.023 2.207 1.843-1.452 2.713 1.28 3.649 4.499 1.54 1.342-.88 2.66-1.243 2.928-.808.27.435-.068 4.367-.748 8.739l-1.237 7.948-1.928-5.335zM20.375 85.25c-9.749-9.404-12.686-14.15-12.75-20.6-.051-5.157 3.121-13.325 5.047-12.996.496.085 4.086 4.82 7.978 10.524 6.302 9.235 7.027 10.782 6.634 14.146-.433 3.71-.477 3.745-2.459 1.977-1.11-.99-3.798-4.198-5.973-7.129-2.176-2.93-4.195-5.088-4.487-4.796-1.403 1.403 1.303 6.113 7.208 12.548 3.576 3.896 6.501 7.72 6.501 8.498 0 .778.273 2.126.607 2.996 1.19 3.103-1.41 1.484-8.306-5.168zm172.092 5.168c.334-.87.607-2.231.607-3.025s2.712-4.358 6.026-7.92c5.414-5.82 7.974-9.846 7.974-12.538 0-2.023-1.624-.736-4.184 3.317-1.476 2.336-4.01 5.519-5.632 7.072l-2.948 2.824-.434-3.723c-.382-3.27.425-5.038 6.632-14.53 3.886-5.944 7.516-10.69 8.066-10.547 2.154.562 5 8.21 4.95 13.302-.064 6.42-2.967 11.135-12.679 20.6-6.773 6.6-9.596 8.342-8.378 5.168zM59.074 85.954c0-.575 3.842-2.89 8.538-5.143 7.683-3.687 8.81-3.973 11.25-2.858l2.712 1.24-5 1.903c-2.75 1.046-5.58 1.903-6.29 1.903S67.23 83.9 65.074 85c-4.391 2.24-6 2.496-6 .954zm97-.954c-1.925-1.054-4.175-1.935-5-1.959-.825-.023-3.75-.899-6.5-1.945l-5-1.903 2.753-1.258c2.501-1.144 3.531-.873 11.25 2.952 4.674 2.315 8.497 4.638 8.497 5.161 0 1.446-2.122 1.075-6-1.048zm-65.867-5.21c-1.638-1.584-2.51-1.905-2.833-1.04-.875 2.344-3.206 1.254-8.618-4.03-5.875-5.735-7.76-9.422-5.539-10.83.746-.472 4.057-.881 7.357-.907 6.383-.052 17.129-1.287 21.863-2.514l2.862-.742-1.72 2.626c-1.631 2.49-1.63 2.662.027 3.298 1.661.637 1.66.735-.017 1.962-1.063.777-1.515 1.943-1.136 2.931.432 1.126-.016 1.81-1.427 2.179-2.047.535-2.046.548.167 2.903 3.626 3.86 1.68 4.137-6.3.896-1.33-.54-1.747-.033-2 2.438l-.319 3.121-2.367-2.29zM81.074 67.5l2.5-1.43-3.25-.035c-2.238-.024-3.25.432-3.25 1.465 0 1.841.78 1.841 4 0zm47 11.567c0-2.728-.295-3.162-1.75-2.572-8.147 3.302-10.007 3.005-6.246-.999 1.942-2.067 2.057-2.496.67-2.496-1.103 0-1.674-.823-1.674-2.417 0-1.329-.562-2.606-1.25-2.837-.986-.332-.992-.733-.028-1.902.975-1.182.892-1.95-.411-3.81-1.617-2.31-1.605-2.325 1.278-1.577 4.78 1.238 15.504 2.474 21.911 2.526 3.3.026 6.61.435 7.357.907 2.152 1.364.497 4.658-5.35 10.646-5.26 5.389-7.913 6.66-8.786 4.214-.306-.856-1.277-.486-3.084 1.174l-2.637 2.425v-3.282zm16-11.567c0-1.033-1.012-1.489-3.25-1.465l-3.25.036 2.5 1.429c3.22 1.841 4 1.841 4 0zm-86.05 8.407c-1.949-3.642-.31-6.86 4.599-9.032 2.46-1.088 4.913-1.707 5.45-1.376.536.332 2.401 2.675 4.144 5.208l3.168 4.605-2.967-.593c-3.508-.702-10.659.726-11.16 2.228-.563 1.69-2.024 1.22-3.234-1.04zM68.074 68c0-.55-.45-1-1-1s-1 .45-1 1 .45 1 1 1 1-.45 1-1zm90.559 8.468c-1.082-.818-4.07-1.468-6.75-1.468-2.645 0-4.809-.382-4.809-.85 0-.467 1.37-2.741 3.045-5.053 2.489-3.436 3.447-4.08 5.25-3.523 7.244 2.233 10.073 6.002 7.755 10.333-1.315 2.457-1.89 2.529-4.491.561zM155.074 68c0-.55-.45-1-1-1s-1 .45-1 1 .45 1 1 1 1-.45 1-1zm19.624-.61c-.91-2.865 4.855-18.801 6.96-19.238 2.996-.623 3.326 2.037 1.028 8.281-1.227 3.337-2.04 6.953-1.807 8.035.363 1.677.196 1.778-1.123.683-1.312-1.089-1.768-.865-2.99 1.466-1.324 2.528-1.491 2.59-2.068.774zM44.055 65.964c-.953-1.78-1.362-1.896-2.738-.778-1.39 1.13-1.526 1.071-.968-.417.357-.953-.424-4.583-1.735-8.067-2.444-6.491-2.167-9.181.88-8.55 1.502.312 5.706 9.845 7.267 16.482.687 2.92-1.326 3.91-2.706 1.33zm22.52-5.908c-2.686-1.1-5.1-3.901-6.972-8.092-.851-1.904-2.556-4.736-3.788-6.291-2.204-2.782-2.21-2.851-.3-4.25 4.048-2.966 5.164-1.78 7.457 7.923.63 2.665 2.314 6.377 3.742 8.25 1.429 1.873 2.432 3.376 2.229 3.342-.203-.035-1.269-.432-2.369-.882zm5.193.306C70.181 58.773 72.757 58 79.633 58c7.619 0 9.904 1.257 4.316 2.375-4.062.812-11.363.804-12.181-.014zm17.306-.236c0-.619 1.125-1.125 2.5-1.125 3.01 0 6.165-2.954 8.101-7.588 1.068-2.554 2.036-3.412 3.854-3.412 1.335 0 2.659.375 2.942.833.938 1.518-4.217 7.854-7.756 9.533-4.817 2.286-9.64 3.166-9.64 1.759zm35.684-.574c-4.443-1.585-7.342-3.99-9.246-7.672-1.557-3.01-1.06-3.879 2.215-3.879 1.695 0 2.704.92 3.746 3.412 1.936 4.634 5.09 7.588 8.101 7.588 1.375 0 2.5.45 2.5 1 0 1.356-2.724 1.189-7.316-.449zm9.01.81c-1.587-1.588.989-2.361 7.865-2.361 7.619 0 9.904 1.257 4.316 2.375-4.062.812-11.363.804-12.181-.014zm20.535-2.55c1.5-1.991 3.243-5.801 3.873-8.466 2.285-9.67 3.412-10.883 7.401-7.966 1.845 1.349 1.844 1.438-.058 4.157-1.07 1.529-3.07 4.831-4.445 7.34-1.424 2.598-4.006 5.42-6 6.558l-3.5 1.999 2.729-3.622zM70.274 55.8c-1.982-1.982-1.461-8.539.863-10.863 2.811-2.811 4.256-2.035 5.212 2.803 1.167 5.9 3.179 7.217 5.163 3.38.86-1.661 1.562-3.916 1.562-5.011 0-3.132 1.923-3.53 4.667-.964 2.1 1.965 2.432 3 2.001 6.25-.284 2.14-1.113 4.271-1.842 4.734-2.071 1.313-16.249 1.048-17.626-.329zm62.372-.371c-2.28-2.28-1.927-6.904.764-10.033 2.853-3.317 4.207-2.657 5.024 2.452 1.211 7.575 4.793 7.378 6.4-.353.958-4.613 2.406-5.329 5.178-2.557 2.323 2.323 2.844 8.88.862 10.862-1.876 1.876-16.275 1.582-18.228-.371zm-53.89-4.08c-.845-.845-.892-5.638-.077-7.761.946-2.466 2.397-.807 2.38 2.721-.017 3.483-1.222 6.12-2.303 5.04zm61.985-1.016c-.989-.988-.808-7.128.228-7.768 1.15-.71 2.105 1.793 2.105 5.517 0 2.795-.91 3.674-2.333 2.251zM41.447 44.49c1.58-.824 4.409-2.846 6.285-4.494 3.206-2.815 7.635-3.948 8.7-2.225.262.423-2.036 2.448-5.105 4.5-3.865 2.583-6.683 3.728-9.167 3.724l-3.586-.006 2.873-1.499zm59.127.511c.342-.552 4.844-1 10.06-1 5.626 0 9.44.404 9.44 1 0 .6-4.02 1-10.059 1-6.451 0-9.837-.359-9.44-1zm69.247-2.73c-3.07-2.052-5.366-4.077-5.105-4.5 1.065-1.723 5.494-.59 8.7 2.225 1.876 1.648 4.705 3.67 6.285 4.494l2.873 1.499-3.586.006c-2.484.004-5.302-1.14-9.167-3.724zM99.074 40.94c0-.582.45-.78 1-.441.55.34 1 .816 1 1.059s-.45.441-1 .441-1-.477-1-1.059zm5 .059c0-.55.45-1 1-1s1 .45 1 1-.45 1-1 1-1-.45-1-1zm11-.059c0-.582.45-.78 1-.441.55.34 1 .816 1 1.059s-.45.441-1 .441-1-.477-1-1.059zm5.5.059c.34-.55.817-1 1.06-1 .242 0 .44.45.44 1s-.476 1-1.059 1c-.582 0-.78-.45-.44-1zm-42-2c-.399-.646-.276-1.624.274-2.174.667-.667 1.242-.609 1.726.174.4.646.276 1.624-.274 2.174-.667.667-1.242.609-1.726-.174zm62 0c-.399-.646-.276-1.624.274-2.174.667-.667 1.242-.609 1.726.174.4.646.276 1.624-.274 2.174-.667.667-1.242.609-1.726-.174zm-44.961-5.182c-2.037-6.857-2.005-7.108 1.362-10.712 4.273-4.574 5.77-4.06 7.696 2.644.91 3.163 2.284 6.988 3.054 8.5 2.766 5.432 5.514 2.763 8.752-8.5 1.91-6.644 3.333-7.168 7.674-2.827 3.378 3.378 3.45 3.941 1.384 10.895L123.997 39H97.152l-1.54-5.182zm13.588-1.581c-.582-1.088-1.502-3.949-2.043-6.357-1.616-7.19 2.92-11.856 6.385-6.568 1.32 2.013 1.339 2.994.151 7.573-1.678 6.467-3.033 8.081-4.493 5.352zm-32.108-.714c-1.053-1.27-.952-1.543.609-1.641 3.535-.224 6.321.563 5.289 1.494-1.547 1.395-4.795 1.476-5.898.147zm62.731.705c-.962-.206-1.75-.759-1.75-1.228 0-1.073 2.942-1.737 5.25-1.185 3.813.912.418 3.253-3.5 2.413zm-30.11-17.922c-1.196-1.195-.646-3.306.86-3.306.825 0 1.5.648 1.5 1.441 0 1.67-1.427 2.798-2.36 1.865zM108.784 6c-.717-2.743.255-6 1.79-6 1.536 0 2.507 3.257 1.79 6-.675 2.582-2.905 2.582-3.58 0z"/></symbol><symbol viewBox="0 0 43 48" id="human" xmlns="http://www.w3.org/2000/svg"><path d="M14.34 1.09c6.44-3.4 14.89 2.77 13.88 9.92.05 7.27-9.19 11.97-15.15 7.87-6.67-3.77-6-15.08 1.27-17.79z"/><path d="M0 37.56c.72-7.02 3-14.2 8.52-18.95 2.86 2.64 6.42 4.96 10.51 4.45 3.6.17 6.45-2.22 9.07-4.34 3.57 2.58 5.41 6.76 7.16 10.66-3.99-.46-8.16.55-10.29 4.24-.11 2.38-.12 4.77-.14 7.15-8.34.81-16.85.01-24.83-2.56v-.65z"/><path d="M29.5 31.66c3.2-.91 6.82-.87 10.06-.16 4.32 1.66 3.26 6.92 3.33 10.56.39 3.27-2.62 6.17-5.86 5.84-3.12-.1-6.82.73-9.34-1.62-2.1-2.67-1.01-6.24-1.18-9.34-.1-2.13.74-4.61 2.99-5.28m3.33 6.1c-1.65.27-4.92-.38-4.65 2.26.82 1.89 3.04 1.31 4.64 1.5.16 1.42-.56 3.99 1.37 4.36 2.51.47 2.17-2.72 2.04-4.33 1.72-.17 3.88.28 4.87-1.55-.14-2.56-3.06-1.99-4.83-2.26.16-1.72.4-4.78-2.14-4.58-1.86.81-1.2 3.01-1.3 4.6z"/></symbol><symbol viewBox="0 0 159 174" id="libra" xmlns="http://www.w3.org/2000/svg"><path d="M52.66 0h.08a.59.59 0 0 0-.14.02l.06-.02zm3.06 0h1.76c-.15.53-.47 1.59-.63 2.13-.28-.54-.85-1.6-1.13-2.13zm46.15 0h.86c1.2 2.13-2.41 1.94-.86 0zm4.94 0h.08c-.03 0-.1.01-.13.01l.05-.01zM59.92 1.23c1.62-.49 2.14.08 1.56 1.71-1.62.48-2.14-.09-1.56-1.71zm37.56 0c1.63-.44 2.15.15 1.55 1.77-1.62.43-2.13-.16-1.55-1.77zM63.8 3.27c1.61-.53 2.16.02 1.66 1.66-1.61.53-2.16-.03-1.66-1.66z"/><path d="M79.3 4.01c1.48 4.89 4.51 9.63 9.39 11.66 4.01-5.11 9.32-10.05 16.29-9.88 9.46-1.09 18.26 7.89 17.01 17.29-.59 6.83-7.08 12.58-14.01 11.82-5.97-.18-11.07-5.95-10.41-11.91.4-4.46 4.65-9.12 9.44-7.72 3.54 1.02 4.44 6.05 1.73 8.43-1.95 2.14-4.95.75-7.33.4.82 2.13 1.62 4.54 3.73 5.76 4.62 2.42 11.16.04 12.65-5.11 2.59-6.89-2.62-14.93-9.81-15.81-7.19-1.54-14.73 2.99-17.42 9.68-2.86 7-1.3 15.51 3.67 21.17 2.18 2.6 5.19 4.23 7.9 6.19-9.39-2.19-15-12.02-15.32-21.18-.47.69-1.4 2.08-1.87 2.77-.25-4.09-2.48-7.57-5.34-10.36-3.09 2.67-5.17 6.3-5.54 10.41-.65-.98-1.3-1.95-1.96-2.92-.07 9.27-5.81 19.13-15.26 21.32 3.29-2.43 7.07-4.46 9.32-8.01 4.88-6.89 5.37-17.23-.4-23.76-4.79-5.87-14.24-7.57-20.38-2.87-4.88 3.49-6.43 11.12-2.75 15.98 2.59 3.62 8.23 4.58 11.86 2.07 1.74-1.27 2.36-3.42 3.11-5.34-2.39.38-5.37 1.7-7.32-.43-3.05-2.63-1.45-8.28 2.68-8.56 6.42-.58 10.38 7.3 7.81 12.7-2.45 6.97-11.89 9.17-17.72 5.11-7.3-4.53-7.95-15.99-2.01-21.89 4.62-5.19 12.53-6.82 18.88-4.04 4.43 1.57 7.75 5.1 10.26 8.96 4.55-2.46 8.48-6.59 9.12-11.93z"/><path d="M67.12 6.21c1.64-.52 2.18.03 1.62 1.65-1.64.52-2.18-.03-1.62-1.65zm23.12-.03c1.63-.53 2.19.01 1.68 1.64-1.63.53-2.19-.01-1.68-1.64zM70.08 9.29c1.78-.59 3.05 2.37 1.08 2.94-1.73.59-2.96-2.4-1.08-2.94zm18.11-.04c1.97-.56 2.33 2.57.57 3.02-1.97.68-2.39-2.68-.57-3.02zM22.81 40.33c-2.2-5.25 2.77-11.22 8.17-11.16 4.72.08 9.59 2.94 11.13 7.57 3.97 8.61.76 19.1-5.98 25.34-.79 1.05-3.71 2.32-3.29-.17 1.79-4.03 5.3-7.08 6.81-11.28 2.03-4.82 1.57-10.67-1.25-15.07-2.31-3.56-7.24-5.41-11.15-3.44-2.11 1.2-3.01 3.6-3.47 5.85 1.8-1.94 4.23-4.59 7.13-2.92 3.3 1.19 4.18 5.99 1.44 8.2-3.11 2.81-8.31.85-9.54-2.92zm94.43-4.28c1.94-4.51 7-7.24 11.82-6.79 4.96.56 9.18 6.11 7.19 10.99-1.17 3.82-6.41 5.78-9.53 3.01-3.18-2.37-1.58-7.94 2.24-8.58 2.72-.7 4.61 1.69 6.52 3.13-.71-2.14-1.6-4.53-3.77-5.57-4.1-2.26-9.4.13-11.53 4.02-2.59 4.82-2.69 10.9-.22 15.79 1.66 3.64 4.75 6.4 6.42 10.04-.37.34-1.12 1.03-1.49 1.38-8.54-5.74-12.38-18.04-7.65-27.42z"/><path d="M122.74 48.92c-.78-2.5.18-5.04.87-7.43 1.67 4.34 2.49 9.43 6.3 12.54 4.7 3.83 10.53 5.97 15.23 9.82 8.06 5.93 13.55 15.44 13.86 25.52v4.77c-.55 7.91-4.65 15.17-10.08 20.78-5.25 5.41-10.1 11.53-16.88 15.1-7.75 4.25-16.79 4.8-24.95 7.96-5.24 1.7-9.86 4.74-14.58 7.5 7.59-7.81 18.66-10.54 28.83-13.32 9.67-2.46 18.32-8.86 23.33-17.51 3.36-5.84 4.53-13.49 1.32-19.64-1.94-3.75-6.39-5.32-8.33-9.04.15-4.12 4.95-5.4 8.01-6.95-4.54-.96-9.41-2.62-11.94-6.82-2.63-3.5-2.58-8.03-3.95-12.02-2.27-3.79-6.08-6.74-7.04-11.26m15.18 13.93c3.73 5.32 8.66 9.83 11.42 15.82 4.88 9.66 4.29 21.23 1.05 31.3 4.34-7.16 5.25-15.97 3.71-24.09-2.44-9.24-8.56-17.37-16.18-23.03zM29.11 54.04c3.77-3.01 4.66-7.95 6.23-12.23.89 2.26 1.76 4.73.96 7.16-.99 4.52-4.83 7.46-7.08 11.27-1.3 4-1.26 8.56-3.98 12-2.63 3.95-7.16 5.92-11.68 6.74 2.23 1.15 4.66 2.07 6.48 3.84.98 1.03 2.03 2.75.83 4.05-2.23 3.07-5.99 4.75-7.83 8.16-2.77 5.22-2.25 11.66.01 16.97 3.01 6.83 8.54 12.34 14.87 16.15 6.55 3.99 14.34 4.78 21.43 7.4 6.51 2.41 13.26 5.24 17.88 10.65-3.57-2.23-7.02-4.7-10.87-6.44-7.83-3.66-16.52-4.74-24.65-7.53-6.39-2.26-11.52-6.92-16.21-11.65-5.17-5.27-10.55-10.67-13.54-17.55-1.4-2.53-.87-5.57-1.96-8.2v-6.04c.65-9.6 5.62-18.72 13.33-24.47 4.81-4.11 10.87-6.34 15.78-10.28M5.36 84.07c-1.77 8.69-1.61 18.37 3.36 26.05-3.1-8.99-3.69-18.99-.56-28.06 2.66-7.44 8.46-13.01 13.09-19.21-7.3 5.16-12.97 12.76-15.89 21.22zm67.71-36.85c1.81-2 3.97-4.42 6.97-4 2.59.11 4.28 2.29 5.93 3.99-4.29-.49-8.61-.49-12.9.01zm-.16 2.72c4.36-.73 8.82-.7 13.19-.03-.58 3.39-3.48 6.52-7.16 5.97-3.27-.03-5.4-3.02-6.03-5.94z"/><path d="M71.38 58.56c5.83-1.32 12.06-1.35 17.8.43 6.43 2.05 11.46 7.19 18.16 8.53 3.28 1.06 6.7-3.67 9.54-.37 2.31 2.6.28 5.49-1.8 7.39 5.4 10.24 9.83 21.04 16.23 30.71-3.25 4.61-8.84 6.64-14.31 6.84-7.25.43-15.98-.31-20.51-6.83 6.1-9.98 11.1-20.56 16.51-30.92-4.26-.62-8.67-.94-12.57-2.9-4.26-2.11-8.27-4.7-12.63-6.61-2.24 16.95-3.79 33.99-5.74 50.97 2.37.01 4.74 0 7.11 0 .3 2.72.24 5.72 1.96 8.02 1.43 2.24 4.09 3.04 6.39 4.08l-.03 6.2c1.51-.61 3.02-1.2 4.53-1.78-3.71 2.82-7.85 5.44-10.08 9.7-4.41 7.43-3.86 18.25 3.07 23.99 6.09 5.45 17.34 5.12 21.71-2.34 3.8-5.48 1.37-14.71-5.71-15.89-4.73-1.49-8.41 2.57-9.79 6.63 2.56-.5 5.71-1.68 7.8.62 3.19 3 .28 8.9-4.02 8.31-6.37-.39-9.38-8.57-6.28-13.69 3.24-6.89 13.35-7.88 18.74-3.02 5.53 4.77 5.86 13.77 1.74 19.54-5.05 7.3-15.95 8.35-23.2 3.87-3.07-1.65-4.78-4.75-7.14-7.13-4.65 1.64-8.31 6.2-9.08 11.09h-.39c-1.21-4.95-4.53-9.15-9.14-11.35-4.65 7.98-14.9 12.46-23.71 8.85-8.68-3.27-12.53-15.29-6.8-22.75 4.38-6.52 15.42-7.05 19.85-.32 3.87 4.84 1.78 13.48-4.62 14.8-4.26 1.3-8.18-4.1-5.42-7.68 1.95-2.79 5.53-1.81 8.27-1.14-1.19-2.09-2-4.7-4.25-5.92-4.2-2.35-9.86 0-11.94 4.13-2.4 5.22-.45 12.2 4.59 15.12 5.5 3.16 12.99 2.37 17.81-1.72 6.86-5.77 7.63-16.61 3.06-24.02-2.27-4.22-6.37-6.83-10.03-9.69 1.5.59 2.99 1.2 4.48 1.81-.01-2.07-.01-4.15-.02-6.22 2.29-1.04 4.95-1.83 6.38-4.08 1.72-2.3 1.66-5.29 1.97-8.01 2.37-.01 4.74-.01 7.11-.01-2.09-16.95-3.3-34.01-5.73-50.92-4.4 1.85-8.41 4.46-12.68 6.58-3.85 1.94-8.2 2.29-12.43 2.68 5.13 10.56 10.41 21.06 16.28 31.22-4.5 5.82-12.42 7.4-19.39 6.84-5.61-.5-12.1-1.77-15.15-7.08 6.16-9.74 10.77-20.35 16.1-30.55-2.06-1.9-4.16-4.76-1.84-7.37 2.5-3.09 5.71.59 8.64.48 7.61-1.18 13.17-7.38 20.6-9.12M31.53 103.9c9.02-.04 18.04-.06 27.06.01-4.42-8.76-8.68-17.61-13.28-26.28-5.04 8.51-9.17 17.52-13.78 26.27m68.97 0c8.99-.06 17.98-.05 26.97 0-4.52-8.81-8.86-17.71-13.61-26.4-4.9 8.57-8.91 17.6-13.36 26.4m-37.96 30.82c5.72 4.65 9.76 11.59 9.49 19.13l2.09-2.77c.42 3.66 1.77 7.42 4.91 9.61 3.99-.77 4.97-5.77 6.03-9.15.5.52 1.5 1.58 2 2.1-.33-7.55 3.89-14.38 9.55-19.06-11.36.21-22.72-.04-34.07.14zM16.38 96.37c3.08-5.1 8.38-8.13 13.54-10.76-.13 3.61-.21 7.65-2.79 10.49-1.46 1.81-3.84 2.24-5.93 2.9 1.6 1.07 4.58 1.5 4.37 3.95-2.12 2.78-5.82 5.01-5.48 8.99-.46 4.56 2.65 8.22 4.71 11.95-2.74-1.87-4.98-4.32-7.21-6.74.39-.53.79-1.06 1.18-1.59-1.51-4.33-1.68-9.1-.7-13.56 1.24-4.79 4.9-8.32 7.76-12.18-7.76 4.87-12.13 15.26-8.36 23.97-.48.61-.96 1.22-1.45 1.82-2.63-6.03-3.41-13.5.36-19.24zm112.65-10.59c7.74 3.1 15.6 9.3 16.12 18.26 1.27 8.26-4.68 15.36-10.91 19.91 2.29-4.01 5.47-8.09 4.66-13.03-.02-3.66-3.96-5.29-5.42-8.22-.11-2.26 2.88-2.66 4.36-3.69-2.11-.63-4.47-1.13-5.94-2.92-2.63-2.73-2.53-6.78-2.87-10.31m3.95 3.82c2.99 3.91 6.8 7.51 8.01 12.46 1.25 4.25.12 8.68.22 13.01 1.43-2.81 1.61-5.98 1.51-9.07.35-6.8-4.59-12.57-9.74-16.4z"/></symbol><symbol viewBox="0 0 40 45" id="list" xmlns="http://www.w3.org/2000/svg"><path d="M10.96 4.33c1.46-2.97 4.48-5.52 7.79-3.32.53 1.2 1.06 2.41 1.57 3.62 3.21-.01 6.45-.27 9.65.21 2.07 2.03 1.1 5.47 1.08 8.08-.47 2.09-2.95.98-4.13.22.07-1.56.14-3.12.19-4.69-2.21-.13-4.07.86-5.51 2.48-3.67.2-7.35.17-11.02.04C9 9.15 6.84 8.31 4.43 8.43c-.2 10.76 0 21.53-.11 32.29 9 .22 18.01.03 27.02.1-.09.84-.26 2.53-.34 3.37-4.59 1.09-9.33.56-13.99.69-5.06-.08-10.14.26-15.19-.22-.37-.41-1.11-1.24-1.48-1.65C-.15 31.22.3 19.42 0 7.63V6.09c3.09-2.65 7.35-.87 10.96-1.76m2.77-1.07c-.14 1.71 1.21 4.17 3.1 2.66 2.24-1.04.51-3.04-.75-4.01l-2.35 1.35z"/><path d="M8.57 22.09c-.09-1.71-.66-3.62.11-5.22 1.17.02 3.5.04 4.67.05l.77 1.67c-1.41.38-2.65-.35-3.88-.92-.05.83-.16 2.48-.22 3.3 1.36-.34 2.74-.95 4.14-.43l-1.09 1.36c-1.13.05-3.38.14-4.5.19zm10.53 9.62c-3.16-6.3 1.77-14.87 8.9-14.95 6.15-.94 11.86 4.43 12 10.49v.26c-.24 3.18-1.58 6.34-4.19 8.28-5.18 4.5-14.2 2.3-16.71-4.08m12.51-10.13c-1.71 2.31-2.7 5.06-4 7.6-.71-.76-1.39-1.55-2.06-2.34-1.42-.12-2.22.82-2.81 1.99 1.61 2.1 3.07 4.41 5.27 5.97 3.19-3.59 4.66-8.3 6.98-12.45-.88-.73-2.38-2.26-3.38-.77zM8.3 24.89c1.68-.04 3.37-.11 5.05 0 .89 1.37.15 3.39.25 4.99-1.68.1-3.37.14-5.05.16-.15-1.71-.21-3.43-.25-5.15m1.91 1.21c-1.26.97-.02 3.74 1.51 2.52 1.32-1 .1-3.74-1.51-2.52zM8.3 32.75c1.82-.18 3.64-.19 5.46-.03.03 1.6.02 3.19-.05 4.78-1.77.41-3.55.44-5.32.04-.08-1.6-.1-3.2-.09-4.79m1.89 1.52c-.5 1.69.04 2.28 1.61 1.76.57-1.67.03-2.26-1.61-1.76z"/></symbol><symbol viewBox="0 0 583.90936 269.00003" id="logo" xmlns="http://www.w3.org/2000/svg"><path d="M0 267.75c.021-.688 2.623-8 5.781-16.25 5.562-14.529 5.839-15.01 8.794-15.3l3.05-.302 5.822 15.301c3.202 8.416 6.026 15.863 6.275 16.551.315.866-.76 1.25-3.494 1.25-3.74 0-4.012-.211-5.148-4l-1.198-4H9.279l-1.199 4c-1.098 3.665-1.488 4-4.658 4-2.121 0-3.445-.484-3.422-1.25zm17.962-12.072c0-.177-.739-2.49-1.642-5.14l-1.641-4.819-1.858 4.89c-1.021 2.69-1.857 5.003-1.858 5.141 0 .138 1.574.25 3.5.25 1.924 0 3.5-.145 3.5-.322zm14-3.178V236h8.05c12.139 0 16.95 3.34 16.95 11.768 0 3.308-.602 4.926-2.567 6.89l-2.567 2.567 3.567 5.372c1.962 2.955 3.567 5.604 3.567 5.888 0 .283-1.761.515-3.914.515-3.62 0-4.145-.376-6.99-5-2.492-4.048-3.603-5-5.836-5-2.691-.001-2.751.123-2.413 5l.346 5h-8.193v-16.5zm16.8-1.7c.66-.66 1.2-2.145 1.2-3.3 0-3.144-1.943-4.5-6.45-4.5h-4.05v9h4.05c2.228 0 4.59-.54 5.25-1.2zm12.2 1.7V236h7.979l4.352 8.661c3.21 6.387 4.59 8.29 5.259 7.25.498-.776 2.553-4.561 4.565-8.411 3.4-6.504 3.913-7.022 7.252-7.31l3.593-.31V269h-7l-.049-9.25-.05-9.25-3.464 6.75c-2.505 4.88-4.01 6.75-5.437 6.75-1.426 0-2.932-1.87-5.437-6.75l-3.464-6.75-.05 9.25-.049 9.25h-8v-16.5zm36 15.639c0-.54 2.64-7.88 5.866-16.31 5.659-14.786 5.973-15.34 8.873-15.633 2.153-.218 3.208.208 3.719 1.5 3.025 7.658 11.542 30.375 11.542 30.788 0 .284-1.578.516-3.508.516-3.166 0-3.666-.394-5.128-4.048l-1.62-4.048-5.037.298c-4.773.282-5.1.482-6.205 3.798-1.018 3.05-1.64 3.54-4.835 3.81-2.017.171-3.667-.131-3.667-.671zm17.6-14.595c-.918-3.66-2.61-7.875-2.983-7.433-.18.214-1.04 2.526-1.911 5.139l-1.584 4.75h3.547c3.268 0 3.5-.194 2.932-2.456zm19.4 2.456v-13h-10v-7h27v7h-10v26h-7v-13zm14 12.484c0-.413 8.517-23.13 11.543-30.788.51-1.292 1.565-1.717 3.719-1.5 2.9.293 3.214.847 8.872 15.632 3.227 8.43 5.866 15.77 5.866 16.31 0 .54-1.65.843-3.667.672-3.194-.27-3.817-.76-4.834-3.81-1.106-3.316-1.432-3.516-6.205-3.798l-5.038-.298-1.62 4.048c-1.462 3.654-1.961 4.048-5.128 4.048-1.93 0-3.508-.232-3.508-.516zm17.154-17.397c-.91-2.702-1.862-4.706-2.116-4.454-.255.252-1.224 2.463-2.154 4.913l-1.69 4.454h7.613l-1.653-4.913zm24.846 1.413V236h22v7h-15v7h6c6 0 6 0 6 3s0 3-6 3h-6v13h-7v-16.5zm25 0V236h7v33h-7v-16.5zm12 0V236h2.75c2.29.002 4.074 1.677 10.653 10 4.347 5.5 7.947 10.001 8 10.002.054.001-.045-4.499-.22-10L247.83 236h8.133v33l-3.25-.043c-2.9-.038-4.057-1.073-10.75-9.617l-7.5-9.574-.286 9.617-.286 9.617h-6.928v-16.5zm31.012 15.25c.006-.688 2.603-8 5.771-16.25 5.59-14.56 5.85-15.009 8.833-15.302l3.073-.301 5.563 14.801c3.06 8.141 5.878 15.59 6.263 16.552.595 1.49.111 1.75-3.25 1.75-3.74 0-4.011-.211-5.147-4l-1.198-4h-10.603l-1.199 4c-1.098 3.665-1.488 4-4.658 4-2.107 0-3.455-.489-3.448-1.25zm17.988-12.072c0-.177-.739-2.49-1.642-5.14l-1.641-4.819-1.858 4.89c-1.021 2.69-1.857 5.003-1.858 5.141 0 .138 1.574.25 3.5.25 1.924 0 3.5-.145 3.5-.322zm14-3.178V236h2.839c2.37 0 3.98 1.434 9.75 8.688 3.801 4.778 7.361 9.29 7.911 10.024.683.913.9-1.844.684-8.687L310.829 236h8.133v33h-2.968c-2.546 0-4.054-1.35-10.609-9.5-4.203-5.225-7.704-9.501-7.782-9.502-.077-.001.003 4.274.178 9.5L298.1 269h-8.138v-16.5zm40.389 14.595c-10.12-6.17-11.16-20.592-1.988-27.587 6.555-5 14.982-4.307 20.57 1.691 2.63 2.823 2.581 3.069-.913 4.615-2.63 1.164-3.16 1.084-5-.756-4.395-4.395-11.92-1.547-13.579 5.139-1.023 4.124 1.22 9.596 4.666 11.378 4.57 2.363 10.575.074 9.98-3.806-.061-.402 1.46.02 3.382.935 4.078 1.945 4.328 3.165 1.243 6.055-4.83 4.524-13.056 5.571-18.361 2.336zm23.611-14.595V236h7v33h-7v-16.5zm10.059 15.25c.032-.688 2.658-8 5.835-16.25 5.566-14.45 5.888-15.011 8.788-15.302l3.01-.302 6.154 16.023c3.385 8.812 6.154 16.26 6.154 16.552 0 .29-1.61.529-3.58.529-3.249 0-3.726-.37-5.152-4-1.56-3.972-1.608-4-6.92-4-4.01 0-5.348.363-5.348 1.453 0 .8-.522 2.6-1.16 4-.907 1.99-1.892 2.547-4.5 2.547-2.036 0-3.317-.488-3.281-1.25zm17.915-13c-.014-.688-.81-2.995-1.768-5.128l-1.742-3.877-1.64 5.127-1.64 5.128h3.408c2.074 0 3.398-.49 3.382-1.25zm14.026-2.25V236h8v26h16v7h-24v-16.5zm42.207 14.831c-7.51-3.7-10.731-16.326-5.957-23.341 3.042-4.47 6.566-6.924 10.97-7.638 4.828-.784 7.952.08 11.703 3.237 3.7 3.113 3.867 4.65.687 6.352-2.09 1.118-2.655 1.014-4.5-.83-2.748-2.75-8.402-2.818-11.084-.136-4.733 4.732-3.672 13.376 2.015 16.421 3.407 1.824 3.682 1.83 7.25.136 4.544-2.156 4.915-4.532.71-4.532-2.534 0-3-.389-3-2.5 0-2.389.266-2.5 6-2.5h6v17h-2.917c-1.605 0-3.089-.515-3.298-1.143-.286-.858-.915-.858-2.518 0-3.005 1.608-8.19 1.382-12.061-.526zm25.793-14.831V236h7.6c8.777 0 13.178 1.66 15.694 5.92 2.43 4.113 2.143 8.408-.794 11.898-1.375 1.634-2.5 3.236-2.5 3.561 0 .325 1.35 2.785 3 5.467 1.65 2.681 3 5.163 3 5.515 0 .351-1.687.63-3.75.62-3.428-.019-4.004-.448-6.706-5-2.422-4.08-3.462-4.981-5.75-4.981-2.686 0-2.794.193-2.794 5v5h-7v-16.5zm16.5-5v-4l-4.75-.305-4.75-.305v9.22l4.75-.305 4.75-.305v-4zm18.49 19.25c-5.165-3.515-7.276-7.07-7.696-12.959-.476-6.672 2.485-12.252 8.227-15.504 7.044-3.99 13.328-2.64 19.282 4.14 5.24 5.97 5.253 14.419.03 21.059-4.459 5.668-14.004 7.238-19.843 3.264zm13.76-7.387c3.238-3.56 3.134-10.57-.204-13.908-3.222-3.222-8.415-3.317-11.24-.205-4.662 5.134-3.562 13.868 2.053 16.297 3.846 1.663 6.443 1.06 9.391-2.184zm19.67 7.751c-5.045-3.076-6.42-7.362-6.42-20.015V236h6.828l.336 11.467c.377 12.87 1.31 14.866 6.944 14.866 5.63 0 6.892-2.828 6.892-15.444V236h7v11.55c0 13.037-1.051 16.291-6.298 19.49-4.137 2.523-11.21 2.557-15.282.074zm27.58-14.614V236h7.55c8.693 0 12.67 1.589 14.933 5.967 4.404 8.515-1.573 17.033-11.95 17.033h-3.533v10h-7v-16.5zm16.344-2.672c.742-1.184.705-2.426-.126-4.25-.98-2.149-1.845-2.578-5.196-2.578h-4.022v9.115l4.148-.307c2.531-.188 4.557-.96 5.196-1.98zm-479.344-69.49c0-4.42-.425-3.68 27.53-47.838 12.187-19.25 26.133-41.3 30.991-49 4.859-7.7 10.722-16.925 13.029-20.5 2.307-3.575 10.596-16.625 18.42-29a20425.197 20425.197 0 0 1 17.877-28.241l3.653-5.742 19.75-.008L247.962 0v184H195.35l4.634-34.25c2.548-18.837 4.539-34.385 4.423-34.55-.116-.165-2.401-.006-5.078.354l-4.867.654-17.456 33.896L159.55 184H96.962v-3.662zm102.97-78.088c6.36-12.607 6.445-12.885 7.58-24.75.632-6.6 1.025-12.155.873-12.344-.219-.271-29.773 43.52-32.796 48.594-.574.964 1.39 1.25 8.583 1.25h9.327l6.433-12.75zM252.962 92V0h106v39.972l-31.75.264-31.75.264-.272 18.75-.272 18.75h62.733l.625 15.21c.47 11.443.322 15.402-.595 15.985-.67.426-15.056.781-31.969.79l-30.75.015v74h-42V92zm109 0V0h125v61h-37V50.189c0-15.817.97-15.189-23.466-15.189h-19.389l-2.072 2.635c-2.038 2.591-2.073 3.522-2.073 56.345 0 53.333.015 53.723 2.105 55.615 1.917 1.735 3.83 1.905 21.395 1.905 17.566 0 19.478-.17 21.395-1.905 1.525-1.38 2.105-3.103 2.105-6.25V139h-34v-26h71v71h-125V92z"/></symbol><symbol viewBox="0 0 30 44" id="pencil" xmlns="http://www.w3.org/2000/svg"><path d="M19.7 0h.72c3.35 1.72 6.63 3.63 9.58 5.99v1.28c-.39.58-1.16 1.74-1.55 2.32-3.78-2.41-7.67-4.64-11.51-6.96.89-.91 1.81-1.78 2.76-2.63zm-5.67 7.72c.57-.81 1.13-1.62 1.69-2.43 3.73 2.37 7.59 4.53 11.34 6.87l-1.48 2.32c-3.91-2.15-7.6-4.67-11.55-6.76zM1.95 27.71c3.5-5.9 7.22-11.68 10.76-17.56 1.22.75 2.43 1.51 3.65 2.26C12.8 18.27 9.18 24.07 5.6 29.92c-1.22-.72-2.44-1.46-3.65-2.21zm18.4-12.96c1.37.76 2.75 1.55 3.83 2.71-4.03 5.18-7.31 11.01-10.47 16.77-1.57-.21-2.86-1.18-4.18-1.98 3.67-5.8 7.21-11.66 10.82-17.5zM1.12 33.4c2.44 1.33 4.71 2.97 7.29 4.02-2.53 2.28-5.5 4.01-8.4 5.77.5-3.25.95-6.5 1.11-9.79zM7.98 42c7.23-.04 14.47-.02 21.7-.01l-.2 2.01H8.47c-.12-.5-.37-1.5-.49-2z"/></symbol><symbol viewBox="0 0 73 47" id="people" xmlns="http://www.w3.org/2000/svg"><path d="M35.67 0h.52c2.58.35 4.97 1.42 6.9 3.18.27 4.5 1.05 8.98.96 13.48-.42.38-1.28 1.14-1.7 1.52-.26 2.12-2.81 4.48-.67 6.27 2.49 3.97 8.46 2.83 11.18 6.52 1.96 5.15 2.7 10.67 3.89 16.03H15.86c.83-4.72 1.5-9.54 2.94-14.11 3.3-4.83 10.17-5.08 13.74-9.74-1.91-3.37-4.82-6.98-3.7-11.09-.59-2.89-.48-5.86.14-8.74C31.05 1.91 33.11.36 35.67 0z"/><path d="M11.91 5.16c2.04-1.19 4.05-2.42 6.11-3.56 2.21 1.54 5.35 2.29 6.55 4.91.46 2.45.65 4.95.88 7.44-.73 2.74-2.18 5.25-3.67 7.65-.01 2.29 1.51 3.53 3.52 4.22-3.23 1.42-6.78 3.04-8.46 6.36-.96 2.64-1.33 5.44-2.02 8.15-4.94-.04-9.88.01-14.82-.06v-.77c.6-3.7.22-8.5 3.83-10.76 3.23-1.58 6.74-2.54 9.92-4.28.21-1.02.43-2.04.64-3.07-1.11-2.01-2.07-4.11-3.37-6.02.23-3.4.13-6.86.89-10.21zm38.1 2.82c.63-5.61 8.8-7.18 12.14-3.02 1.64 2.36 1.62 5.38 2.08 8.12.26 2.66 1.45 5.18 1.14 7.89-1.6.51-3.2 1.02-4.8 1.52 1.38 5.01 6.87 6.24 11.06 7.93 1.67 3 .91 6.74 1.37 10.06v.92c-5.04.04-10.09 0-15.13.03-.9-3.32-1.58-6.7-2.5-10.02-.68-2.6-3.28-3.79-5.4-5.02.99-1.15 3.06-1.9 2.89-3.69-2-.96-4.4-1.35-5.83-3.23l1.61.7c-.9-4 1.18-8.12 1.37-12.19z"/></symbol></svg>