<svg width="212" height="232" viewBox="0 0 159 174" xmlns="http://www.w3.org/2000/svg"><g fill="#394b5f"><path d="M52.66 0h.08a.59.59 0 0 0-.14.02l.06-.02zm3.06 0h1.76c-.15.53-.47 1.59-.63 2.13-.28-.54-.85-1.6-1.13-2.13zm46.15 0h.86c1.2 2.13-2.41 1.94-.86 0zm4.94 0h.08c-.03 0-.1.01-.13.01l.05-.01zM59.92 1.23c1.62-.49 2.14.08 1.56 1.71-1.62.48-2.14-.09-1.56-1.71zm37.56 0c1.63-.44 2.15.15 1.55 1.77-1.62.43-2.13-.16-1.55-1.77zM63.8 3.27c1.61-.53 2.16.02 1.66 1.66-1.61.53-2.16-.03-1.66-1.66z"/><path d="M79.3 4.01c1.48 4.89 4.51 9.63 9.39 11.66 4.01-5.11 9.32-10.05 16.29-9.88 9.46-1.09 18.26 7.89 17.01 17.29-.59 6.83-7.08 12.58-14.01 11.82-5.97-.18-11.07-5.95-10.41-11.91.4-4.46 4.65-9.12 9.44-7.72 3.54 1.02 4.44 6.05 1.73 8.43-1.95 2.14-4.95.75-7.33.4.82 2.13 1.62 4.54 3.73 5.76 4.62 2.42 11.16.04 12.65-5.11 2.59-6.89-2.62-14.93-9.81-15.81-7.19-1.54-14.73 2.99-17.42 9.68-2.86 7-1.3 15.51 3.67 21.17 2.18 2.6 5.19 4.23 7.9 6.19-9.39-2.19-15-12.02-15.32-21.18-.47.69-1.4 2.08-1.87 2.77-.25-4.09-2.48-7.57-5.34-10.36-3.09 2.67-5.17 6.3-5.54 10.41-.65-.98-1.3-1.95-1.96-2.92-.07 9.27-5.81 19.13-15.26 21.32 3.29-2.43 7.07-4.46 9.32-8.01 4.88-6.89 5.37-17.23-.4-23.76-4.79-5.87-14.24-7.57-20.38-2.87-4.88 3.49-6.43 11.12-2.75 15.98 2.59 3.62 8.23 4.58 11.86 2.07 1.74-1.27 2.36-3.42 3.11-5.34-2.39.38-5.37 1.7-7.32-.43-3.05-2.63-1.45-8.28 2.68-8.56 6.42-.58 10.38 7.3 7.81 12.7-2.45 6.97-11.89 9.17-17.72 5.11-7.3-4.53-7.95-15.99-2.01-21.89 4.62-5.19 12.53-6.82 18.88-4.04 4.43 1.57 7.75 5.1 10.26 8.96 4.55-2.46 8.48-6.59 9.12-11.93z"/><path d="M67.12 6.21c1.64-.52 2.18.03 1.62 1.65-1.64.52-2.18-.03-1.62-1.65zm23.12-.03c1.63-.53 2.19.01 1.68 1.64-1.63.53-2.19-.01-1.68-1.64zM70.08 9.29c1.78-.59 3.05 2.37 1.08 2.94-1.73.59-2.96-2.4-1.08-2.94zm18.11-.04c1.97-.56 2.33 2.57.57 3.02-1.97.68-2.39-2.68-.57-3.02zM22.81 40.33c-2.2-5.25 2.77-11.22 8.17-11.16 4.72.08 9.59 2.94 11.13 7.57 3.97 8.61.76 19.1-5.98 25.34-.79 1.05-3.71 2.32-3.29-.17 1.79-4.03 5.3-7.08 6.81-11.28 2.03-4.82 1.57-10.67-1.25-15.07-2.31-3.56-7.24-5.41-11.15-3.44-2.11 1.2-3.01 3.6-3.47 5.85 1.8-1.94 4.23-4.59 7.13-2.92 3.3 1.19 4.18 5.99 1.44 8.2-3.11 2.81-8.31.85-9.54-2.92zm94.43-4.28c1.94-4.51 7-7.24 11.82-6.79 4.96.56 9.18 6.11 7.19 10.99-1.17 3.82-6.41 5.78-9.53 3.01-3.18-2.37-1.58-7.94 2.24-8.58 2.72-.7 4.61 1.69 6.52 3.13-.71-2.14-1.6-4.53-3.77-5.57-4.1-2.26-9.4.13-11.53 4.02-2.59 4.82-2.69 10.9-.22 15.79 1.66 3.64 4.75 6.4 6.42 10.04-.37.34-1.12 1.03-1.49 1.38-8.54-5.74-12.38-18.04-7.65-27.42z"/><path d="M122.74 48.92c-.78-2.5.18-5.04.87-7.43 1.67 4.34 2.49 9.43 6.3 12.54 4.7 3.83 10.53 5.97 15.23 9.82 8.06 5.93 13.55 15.44 13.86 25.52v4.77c-.55 7.91-4.65 15.17-10.08 20.78-5.25 5.41-10.1 11.53-16.88 15.1-7.75 4.25-16.79 4.8-24.95 7.96-5.24 1.7-9.86 4.74-14.58 7.5 7.59-7.81 18.66-10.54 28.83-13.32 9.67-2.46 18.32-8.86 23.33-17.51 3.36-5.84 4.53-13.49 1.32-19.64-1.94-3.75-6.39-5.32-8.33-9.04.15-4.12 4.95-5.4 8.01-6.95-4.54-.96-9.41-2.62-11.94-6.82-2.63-3.5-2.58-8.03-3.95-12.02-2.27-3.79-6.08-6.74-7.04-11.26m15.18 13.93c3.73 5.32 8.66 9.83 11.42 15.82 4.88 9.66 4.29 21.23 1.05 31.3 4.34-7.16 5.25-15.97 3.71-24.09-2.44-9.24-8.56-17.37-16.18-23.03zM29.11 54.04c3.77-3.01 4.66-7.95 6.23-12.23.89 2.26 1.76 4.73.96 7.16-.99 4.52-4.83 7.46-7.08 11.27-1.3 4-1.26 8.56-3.98 12-2.63 3.95-7.16 5.92-11.68 6.74 2.23 1.15 4.66 2.07 6.48 3.84.98 1.03 2.03 2.75.83 4.05-2.23 3.07-5.99 4.75-7.83 8.16-2.77 5.22-2.25 11.66.01 16.97 3.01 6.83 8.54 12.34 14.87 16.15 6.55 3.99 14.34 4.78 21.43 7.4 6.51 2.41 13.26 5.24 17.88 10.65-3.57-2.23-7.02-4.7-10.87-6.44-7.83-3.66-16.52-4.74-24.65-7.53-6.39-2.26-11.52-6.92-16.21-11.65-5.17-5.27-10.55-10.67-13.54-17.55-1.4-2.53-.87-5.57-1.96-8.2v-6.04c.65-9.6 5.62-18.72 13.33-24.47 4.81-4.11 10.87-6.34 15.78-10.28M5.36 84.07c-1.77 8.69-1.61 18.37 3.36 26.05-3.1-8.99-3.69-18.99-.56-28.06 2.66-7.44 8.46-13.01 13.09-19.21-7.3 5.16-12.97 12.76-15.89 21.22zm67.71-36.85c1.81-2 3.97-4.42 6.97-4 2.59.11 4.28 2.29 5.93 3.99-4.29-.49-8.61-.49-12.9.01zm-.16 2.72c4.36-.73 8.82-.7 13.19-.03-.58 3.39-3.48 6.52-7.16 5.97-3.27-.03-5.4-3.02-6.03-5.94z"/><path d="M71.38 58.56c5.83-1.32 12.06-1.35 17.8.43 6.43 2.05 11.46 7.19 18.16 8.53 3.28 1.06 6.7-3.67 9.54-.37 2.31 2.6.28 5.49-1.8 7.39 5.4 10.24 9.83 21.04 16.23 30.71-3.25 4.61-8.84 6.64-14.31 6.84-7.25.43-15.98-.31-20.51-6.83 6.1-9.98 11.1-20.56 16.51-30.92-4.26-.62-8.67-.94-12.57-2.9-4.26-2.11-8.27-4.7-12.63-6.61-2.24 16.95-3.79 33.99-5.74 50.97 2.37.01 4.74 0 7.11 0 .3 2.72.24 5.72 1.96 8.02 1.43 2.24 4.09 3.04 6.39 4.08l-.03 6.2c1.51-.61 3.02-1.2 4.53-1.78-3.71 2.82-7.85 5.44-10.08 9.7-4.41 7.43-3.86 18.25 3.07 23.99 6.09 5.45 17.34 5.12 21.71-2.34 3.8-5.48 1.37-14.71-5.71-15.89-4.73-1.49-8.41 2.57-9.79 6.63 2.56-.5 5.71-1.68 7.8.62 3.19 3 .28 8.9-4.02 8.31-6.37-.39-9.38-8.57-6.28-13.69 3.24-6.89 13.35-7.88 18.74-3.02 5.53 4.77 5.86 13.77 1.74 19.54-5.05 7.3-15.95 8.35-23.2 3.87-3.07-1.65-4.78-4.75-7.14-7.13-4.65 1.64-8.31 6.2-9.08 11.09h-.39c-1.21-4.95-4.53-9.15-9.14-11.35-4.65 7.98-14.9 12.46-23.71 8.85-8.68-3.27-12.53-15.29-6.8-22.75 4.38-6.52 15.42-7.05 19.85-.32 3.87 4.84 1.78 13.48-4.62 14.8-4.26 1.3-8.18-4.1-5.42-7.68 1.95-2.79 5.53-1.81 8.27-1.14-1.19-2.09-2-4.7-4.25-5.92-4.2-2.35-9.86 0-11.94 4.13-2.4 5.22-.45 12.2 4.59 15.12 5.5 3.16 12.99 2.37 17.81-1.72 6.86-5.77 7.63-16.61 3.06-24.02-2.27-4.22-6.37-6.83-10.03-9.69 1.5.59 2.99 1.2 4.48 1.81-.01-2.07-.01-4.15-.02-6.22 2.29-1.04 4.95-1.83 6.38-4.08 1.72-2.3 1.66-5.29 1.97-8.01 2.37-.01 4.74-.01 7.11-.01-2.09-16.95-3.3-34.01-5.73-50.92-4.4 1.85-8.41 4.46-12.68 6.58-3.85 1.94-8.2 2.29-12.43 2.68 5.13 10.56 10.41 21.06 16.28 31.22-4.5 5.82-12.42 7.4-19.39 6.84-5.61-.5-12.1-1.77-15.15-7.08 6.16-9.74 10.77-20.35 16.1-30.55-2.06-1.9-4.16-4.76-1.84-7.37 2.5-3.09 5.71.59 8.64.48 7.61-1.18 13.17-7.38 20.6-9.12M31.53 103.9c9.02-.04 18.04-.06 27.06.01-4.42-8.76-8.68-17.61-13.28-26.28-5.04 8.51-9.17 17.52-13.78 26.27m68.97 0c8.99-.06 17.98-.05 26.97 0-4.52-8.81-8.86-17.71-13.61-26.4-4.9 8.57-8.91 17.6-13.36 26.4m-37.96 30.82c5.72 4.65 9.76 11.59 9.49 19.13l2.09-2.77c.42 3.66 1.77 7.42 4.91 9.61 3.99-.77 4.97-5.77 6.03-9.15.5.52 1.5 1.58 2 2.1-.33-7.55 3.89-14.38 9.55-19.06-11.36.21-22.72-.04-34.07.14zM16.38 96.37c3.08-5.1 8.38-8.13 13.54-10.76-.13 3.61-.21 7.65-2.79 10.49-1.46 1.81-3.84 2.24-5.93 2.9 1.6 1.07 4.58 1.5 4.37 3.95-2.12 2.78-5.82 5.01-5.48 8.99-.46 4.56 2.65 8.22 4.71 11.95-2.74-1.87-4.98-4.32-7.21-6.74.39-.53.79-1.06 1.18-1.59-1.51-4.33-1.68-9.1-.7-13.56 1.24-4.79 4.9-8.32 7.76-12.18-7.76 4.87-12.13 15.26-8.36 23.97-.48.61-.96 1.22-1.45 1.82-2.63-6.03-3.41-13.5.36-19.24zm112.65-10.59c7.74 3.1 15.6 9.3 16.12 18.26 1.27 8.26-4.68 15.36-10.91 19.91 2.29-4.01 5.47-8.09 4.66-13.03-.02-3.66-3.96-5.29-5.42-8.22-.11-2.26 2.88-2.66 4.36-3.69-2.11-.63-4.47-1.13-5.94-2.92-2.63-2.73-2.53-6.78-2.87-10.31m3.95 3.82c2.99 3.91 6.8 7.51 8.01 12.46 1.25 4.25.12 8.68.22 13.01 1.43-2.81 1.61-5.98 1.51-9.07.35-6.8-4.59-12.57-9.74-16.4z"/></g></svg>